<svg width="327" height="276" viewBox="0 0 327 276" fill="none" xmlns="http://www.w3.org/2000/svg">
<g filter="url(#filter0_d_2303_2230)">
<rect x="12.1992" y="3.19922" width="302" height="251" rx="18" fill="url(#paint0_linear_2303_2230)"/>
<path d="M125.124 49.4592C125.024 50.3792 125.104 50.5992 125.004 54.2192C124.964 56.1992 124.784 56.3192 123.524 56.2992C121.784 56.2992 121.484 56.1192 121.464 54.6392C121.444 51.6192 121.444 42.9792 121.484 42.5392C121.564 41.7192 121.864 41.4192 122.804 41.3792C123.524 41.3192 124.404 41.3992 124.764 41.6392C125.384 42.0592 125.864 42.7392 127.284 45.0392C128.344 46.7592 129.164 48.2192 129.704 48.7992C129.904 48.9992 130.144 49.0792 130.244 48.7992C130.304 48.6792 130.304 48.3792 130.304 48.2392C130.384 44.1592 130.384 42.9592 130.444 42.3192C130.524 41.6792 130.824 41.3792 132.164 41.3792C133.204 41.3792 134.004 41.3192 134.024 42.5192C134.044 44.6792 134.044 54.7792 133.904 55.4592C133.724 56.3392 132.784 56.2992 132.764 56.2992C132.364 56.3392 131.964 56.3392 131.564 56.3192C130.324 56.2592 130.384 56.3192 129.384 54.8392C126.524 50.5992 126.544 50.6192 125.684 49.4592C125.384 49.0192 125.144 49.3192 125.124 49.4592ZM146.396 49.9992C146.436 50.3592 146.456 50.7192 146.436 51.0792C146.416 51.6392 146.156 51.8792 145.616 51.9792C145.276 52.0392 144.916 52.0392 144.576 52.0592C143.836 52.0592 143.116 52.0792 142.376 52.0792C141.856 52.0992 141.336 52.0992 140.816 52.0992C139.876 52.1192 139.636 52.0792 139.456 52.2592C139.376 52.3392 139.416 52.5392 139.496 52.6992C139.616 52.9792 139.956 53.2392 140.236 53.3592C140.676 53.5792 141.116 53.6392 141.596 53.5792C141.876 53.5592 142.116 53.4592 142.336 53.3192C142.416 53.2792 142.476 53.1992 142.536 53.1392C142.676 52.9992 142.756 52.8392 142.876 52.6792C142.996 52.5192 143.136 52.3592 143.356 52.3392C143.556 52.3192 145.536 52.3192 145.916 52.5592C146.116 52.6792 146.196 52.8592 146.136 53.0792C145.816 54.3192 144.836 55.2792 143.716 55.8192C141.956 56.6792 139.756 56.6792 138.076 55.6592C136.916 54.9392 136.036 53.7792 135.636 52.4792C135.276 51.2392 135.376 49.8992 135.876 48.7192C136.056 48.2992 136.196 47.8992 136.456 47.5192C136.716 47.1392 137.036 46.7992 137.376 46.4992C138.036 45.8992 138.856 45.4792 139.736 45.2792C141.416 44.8792 143.276 45.3592 144.576 46.4992C145.596 47.3992 146.216 48.6592 146.396 49.9992ZM142.536 49.4192C142.716 49.1192 142.416 48.7792 142.196 48.5992C141.956 48.3992 141.596 48.2992 141.276 48.2392C140.656 48.1392 139.796 48.3392 139.496 48.9592C139.396 49.1392 139.356 49.4992 139.656 49.5192C140.176 49.5992 140.736 49.5392 141.256 49.5392C141.516 49.5392 141.776 49.5392 142.036 49.5392C142.216 49.5392 142.436 49.5992 142.536 49.4192ZM158.11 45.8592C158.11 45.8992 158.39 55.1792 157.81 56.9992C157.53 57.8792 157.01 58.5392 156.23 59.0392C154.93 59.8792 153.35 60.0192 151.83 59.9392C151.01 59.8792 150.19 59.7192 149.47 59.3392C148.65 58.8992 148.05 58.2392 147.77 57.3592C147.65 57.0192 147.83 56.5592 148.13 56.3992C148.61 56.1192 150.41 55.8992 150.97 56.1392C151.25 56.2592 151.31 56.6592 151.49 56.8592C152.01 57.4592 153.95 57.5992 154.55 56.1192C154.63 55.9392 154.67 55.7192 154.59 55.5592C154.35 55.0192 153.37 55.7192 153.03 55.8192C152.59 55.9392 152.13 55.9992 151.67 55.9792C150.77 55.9392 149.89 55.6192 149.19 55.0392C148.23 54.2392 147.69 53.0192 147.47 51.7992C147.27 50.5392 147.39 49.1992 147.91 48.0392C148.83 45.9992 151.13 44.1392 154.47 45.5792C154.77 45.7192 155.05 45.6992 155.31 45.4992C155.51 45.3392 155.73 45.2792 155.99 45.2792C157.35 45.2992 157.93 45.1392 158.11 45.8592ZM153.97 52.6392C154.77 51.9992 155.11 49.9592 154.15 48.5392C153.89 48.1592 153.03 47.6392 152.09 48.0192C150.81 48.5392 150.63 50.0992 150.89 51.2792C150.99 51.7592 151.21 52.2192 151.57 52.5592C152.23 53.1392 153.41 53.0792 153.97 52.6392ZM162.058 56.2592C159.178 55.3192 159.338 52.5592 159.978 51.4392C160.778 49.9992 162.398 49.7592 163.878 49.5192C164.398 49.4392 164.978 49.4192 165.458 49.1992C166.158 48.8792 166.118 48.1792 165.678 47.8192C165.058 47.3392 164.118 47.6192 163.618 48.1192C163.258 48.4992 163.318 48.8992 162.658 49.0392C162.558 49.0592 160.698 49.1792 160.378 49.0192C160.138 48.8992 160.018 48.6792 159.978 48.4192C159.898 47.9392 160.078 47.4992 160.318 47.0992C161.378 45.3392 163.718 44.7192 165.638 44.8792C166.878 44.9792 167.578 45.3792 167.778 45.4992C168.678 45.9792 169.278 46.7992 169.478 47.7992C169.778 49.3392 169.498 53.0392 169.778 54.7992C169.818 55.0192 169.858 55.2392 169.838 55.4792C169.818 55.7792 169.558 56.0992 169.238 56.1592C169.118 56.1992 167.438 56.4192 166.878 56.1192C166.798 56.0792 166.738 55.9992 166.658 55.9392C166.478 55.8192 166.298 55.7992 166.118 55.8592C164.758 56.2792 163.458 56.6992 162.058 56.2592ZM163.358 53.6592C163.798 53.8392 164.798 53.9992 165.338 53.3792C165.938 52.7192 166.038 51.7992 165.278 51.8192C164.218 51.8592 163.638 52.1992 163.318 52.4592C162.818 52.8592 163.018 53.4992 163.358 53.6592ZM172.843 54.8592C172.203 53.6792 172.763 49.1992 172.423 48.5592C172.283 48.2992 172.043 48.2992 171.443 48.1192C170.443 47.8192 170.743 46.1592 170.803 46.0592C171.083 45.4192 171.623 45.4592 172.163 45.2992C172.363 45.2392 172.443 45.0992 172.463 44.8792C172.523 44.3192 172.503 43.7792 172.503 43.2392C172.523 42.5392 172.823 41.9592 173.383 41.8592C173.743 41.7992 174.783 41.7992 175.043 41.8792C175.863 42.1392 175.903 42.6792 175.923 43.2192C175.983 43.7792 175.943 44.3592 175.963 44.9392C175.963 45.0592 176.063 45.1592 176.183 45.1992C176.463 45.2992 177.183 45.2992 177.683 45.6792C178.103 45.9592 177.963 47.2792 177.883 47.4592C177.383 48.4392 176.083 47.7992 176.003 48.5392C176.003 48.6192 175.983 52.2192 175.983 52.3592C176.003 52.6192 175.963 52.9992 176.663 53.3192C177.343 53.6392 178.143 53.7192 178.083 54.5592C178.063 54.9192 177.863 55.9192 177.223 56.1792C177.183 56.1792 176.363 56.6192 174.183 56.0192C174.063 55.9792 173.323 55.7192 172.843 54.8592ZM182.152 56.0792C181.632 56.1592 179.772 56.3192 179.512 55.6592C179.272 55.0792 179.432 51.9592 179.432 51.7192C179.392 48.8792 179.352 48.4592 179.352 46.6192C179.352 46.2192 179.472 45.5592 180.072 45.4992C180.532 45.4592 181.812 45.4792 181.832 45.4792C182.412 45.4992 182.592 45.6992 182.692 45.9792C182.792 46.2592 182.792 46.5592 182.792 46.8592C182.812 48.6792 182.972 54.7792 182.752 55.5592C182.652 55.8792 182.512 56.0192 182.152 56.0792ZM182.092 44.6792C182.072 44.6792 180.612 44.8792 180.072 44.7192C179.712 44.5992 179.492 44.4592 179.432 44.0192C179.192 42.6792 179.532 42.2392 179.592 42.1192C179.712 41.9592 179.872 41.8592 180.072 41.8192C180.672 41.7392 181.732 41.7592 182.152 41.8192C182.412 41.8392 182.692 42.0592 182.732 42.3792C182.792 43.0792 182.812 43.7392 182.692 44.1592C182.592 44.4592 182.412 44.6592 182.092 44.6792ZM184.346 45.4592C184.426 45.4392 184.806 45.2792 186.226 45.3592C187.266 45.3992 187.406 46.2192 187.446 46.3592C187.726 47.1592 187.926 47.9792 188.186 48.7992C188.366 49.3192 188.486 49.8592 188.686 50.3792C188.726 50.4592 188.746 50.5592 188.826 50.6192C188.946 50.6992 189.126 50.5992 189.186 50.4392C189.486 49.5192 189.426 49.5192 190.406 46.5592C190.646 45.8592 190.786 45.4792 191.406 45.3792C191.866 45.2992 193.046 45.3792 193.326 45.4192C193.906 45.5192 194.026 46.0792 193.846 46.6992C193.846 46.7392 191.586 53.8392 190.906 55.3592C190.466 56.3592 189.746 56.1992 188.566 56.1792C188.066 56.1792 187.246 56.0392 187.006 55.3992C186.966 55.3192 184.966 49.6992 184.026 46.7192C183.986 46.5392 183.726 45.6792 184.346 45.4592ZM205.4 49.9992C205.44 50.3592 205.46 50.7192 205.44 51.0792C205.42 51.6392 205.16 51.8792 204.62 51.9792C204.28 52.0392 203.92 52.0392 203.58 52.0592C202.84 52.0592 202.12 52.0792 201.38 52.0792C200.86 52.0992 200.34 52.0992 199.82 52.0992C198.88 52.1192 198.64 52.0792 198.46 52.2592C198.38 52.3392 198.42 52.5392 198.5 52.6992C198.62 52.9792 198.96 53.2392 199.24 53.3592C199.68 53.5792 200.12 53.6392 200.6 53.5792C200.88 53.5592 201.12 53.4592 201.34 53.3192C201.42 53.2792 201.48 53.1992 201.54 53.1392C201.68 52.9992 201.76 52.8392 201.88 52.6792C202 52.5192 202.14 52.3592 202.36 52.3392C202.56 52.3192 204.54 52.3192 204.92 52.5592C205.12 52.6792 205.2 52.8592 205.14 53.0792C204.82 54.3192 203.84 55.2792 202.72 55.8192C200.96 56.6792 198.76 56.6792 197.08 55.6592C195.92 54.9392 195.04 53.7792 194.64 52.4792C194.28 51.2392 194.38 49.8992 194.88 48.7192C195.06 48.2992 195.2 47.8992 195.46 47.5192C195.72 47.1392 196.04 46.7992 196.38 46.4992C197.04 45.8992 197.86 45.4792 198.74 45.2792C200.42 44.8792 202.28 45.3592 203.58 46.4992C204.6 47.3992 205.22 48.6592 205.4 49.9992ZM201.54 49.4192C201.72 49.1192 201.42 48.7792 201.2 48.5992C200.96 48.3992 200.6 48.2992 200.28 48.2392C199.66 48.1392 198.8 48.3392 198.5 48.9592C198.4 49.1392 198.36 49.4992 198.66 49.5192C199.18 49.5992 199.74 49.5392 200.26 49.5392C200.52 49.5392 200.78 49.5392 201.04 49.5392C201.22 49.5392 201.44 49.5992 201.54 49.4192ZM93.321 70.6792C93.321 70.7192 93.301 71.8992 93.341 72.3992C93.381 72.8592 93.661 73.0392 94.761 73.0392C95.441 73.0392 97.141 73.0592 98.321 73.0592C99.701 73.0592 99.981 72.8592 99.841 75.1192C99.761 76.3792 99.541 76.2792 97.141 76.2592C96.221 76.2592 99.521 76.2792 92.561 76.2592C91.821 76.2592 91.001 76.3592 90.281 76.1992C89.461 75.9992 89.561 75.1392 89.561 74.3192C89.541 73.4992 89.481 63.6192 89.481 63.1792C89.461 62.2992 89.381 61.5192 90.701 61.5192C91.361 61.5192 92.161 61.3992 92.781 61.6192C93.421 61.8392 93.261 62.6792 93.281 63.2192C93.301 65.4392 93.301 66.3592 93.321 70.6792ZM109.994 61.4592C111.034 61.2992 111.994 61.3992 112.354 61.4592C112.974 61.5392 113.194 61.9792 113.214 62.5992C113.314 71.7792 113.214 72.1392 112.734 73.1992C111.474 75.9792 108.554 76.6592 106.774 76.6392C104.194 76.6192 101.074 75.1992 100.614 71.6792C100.334 69.5592 100.494 63.9792 100.514 63.1392C100.574 61.4392 100.874 61.4392 101.534 61.3792C102.074 61.2992 102.614 61.3192 103.174 61.3592C103.194 61.3592 104.254 61.2992 104.254 62.4392C104.294 64.8992 104.274 67.3792 104.294 69.8592C104.294 69.9392 103.934 74.1792 107.634 73.2592C109.034 72.9192 109.374 71.8392 109.394 70.7992C109.394 70.4392 109.394 71.5792 109.394 62.7592C109.394 61.6592 109.714 61.4992 109.994 61.4592ZM115.328 61.5392C120.108 61.4592 125.088 61.5192 125.188 61.5192C126.248 61.5192 126.188 61.9592 126.208 62.8992C126.208 63.4992 126.348 63.9992 126.128 64.5592C125.948 65.0792 125.148 64.9392 124.708 64.9592C124.028 64.9592 123.288 64.9192 122.608 65.0192C122.008 65.0992 122.168 66.1992 122.168 67.7592C122.148 70.1992 122.148 72.6192 122.128 75.0392C122.128 76.3192 121.728 76.4192 120.968 76.4192C120.328 76.4192 119.548 76.4992 118.928 76.3392C118.428 76.1992 118.348 75.6392 118.348 75.1992C118.328 74.5192 118.348 75.5392 118.368 67.8792C118.368 67.1992 118.488 66.2192 118.268 65.5592C118.088 64.9992 117.588 65.0392 117.088 65.0392C116.388 65.0392 115.768 64.9792 115.108 64.9792C114.648 64.9792 114.268 64.8392 114.168 64.3192C114.008 63.6392 114.108 63.0992 114.108 62.3792C114.088 61.4992 114.928 61.5592 115.328 61.5392ZM131.968 76.3792C131.448 76.4792 128.468 76.7592 126.748 75.4592C126.088 74.9592 125.648 74.4792 125.488 73.6792C125.308 72.7992 125.708 72.2992 126.228 72.1792C126.408 72.1392 127.908 71.9992 128.388 72.3792C128.548 72.4992 128.708 72.6592 128.788 72.8392C129.208 73.6992 130.248 74.1392 131.308 73.7592C131.548 73.6792 132.668 72.7192 130.628 72.1592C130.208 72.0392 129.788 71.9992 129.368 71.8792C126.628 71.0992 125.728 70.1192 125.628 68.8592C125.608 68.5392 125.268 65.3992 130.068 65.0392C133.868 64.7592 135.008 67.1592 134.928 68.4392C134.928 68.4592 135.028 69.1992 133.508 69.1992C132.268 69.1992 132.108 69.1392 132.048 69.1192C131.488 68.9592 131.528 68.4792 131.188 68.1192C130.628 67.4992 129.388 67.7792 129.448 68.4192C129.468 68.6192 129.568 68.7592 129.728 68.8792C130.808 69.7392 134.528 68.9392 135.228 72.0792C135.968 75.3392 132.048 76.3592 131.968 76.3792ZM140.906 62.5392C140.646 61.2992 142.246 61.3592 143.086 61.3592C144.486 61.3592 144.506 61.4992 144.906 62.6592C145.786 65.2192 145.986 66.1392 146.866 68.6792C147.406 70.2592 147.666 69.9992 148.086 68.7992C148.646 67.2592 149.086 65.5192 150.006 62.7392C150.166 62.2192 150.206 61.4792 151.506 61.4792C151.906 61.4792 152.246 61.4792 152.706 61.4792C153.666 61.4792 154.126 61.6392 154.046 62.2392C153.966 62.9992 154.026 62.5392 149.886 74.5192C149.626 75.2192 149.366 76.1392 148.506 76.2392C148.086 76.2992 147.666 76.2392 147.266 76.2392C146.706 76.2392 146.306 76.2192 145.966 75.7592C145.066 74.5592 141.046 63.3192 140.906 62.5392ZM155.935 76.2592C153.055 75.3192 153.215 72.5592 153.855 71.4392C154.655 69.9992 156.275 69.7592 157.755 69.5192C158.275 69.4392 158.855 69.4192 159.335 69.1992C160.035 68.8792 159.995 68.1792 159.555 67.8192C158.935 67.3392 157.995 67.6192 157.495 68.1192C157.135 68.4992 157.195 68.8992 156.535 69.0392C156.435 69.0592 154.575 69.1792 154.255 69.0192C154.015 68.8992 153.895 68.6792 153.855 68.4192C153.775 67.9392 153.955 67.4992 154.195 67.0992C155.255 65.3392 157.595 64.7192 159.515 64.8792C160.755 64.9792 161.455 65.3792 161.655 65.4992C162.555 65.9792 163.155 66.7992 163.355 67.7992C163.655 69.3392 163.375 73.0392 163.655 74.7992C163.695 75.0192 163.735 75.2392 163.715 75.4792C163.695 75.7792 163.435 76.0992 163.115 76.1592C162.995 76.1992 161.315 76.4192 160.755 76.1192C160.675 76.0792 160.615 75.9992 160.535 75.9392C160.355 75.8192 160.175 75.7992 159.995 75.8592C158.635 76.2792 157.335 76.6992 155.935 76.2592ZM157.235 73.6592C157.675 73.8392 158.675 73.9992 159.215 73.3792C159.815 72.7192 159.915 71.7992 159.155 71.8192C158.095 71.8592 157.515 72.1992 157.195 72.4592C156.695 72.8592 156.895 73.4992 157.235 73.6592ZM168.18 76.1392C168.14 76.1392 166.42 76.2392 165.86 76.0792C165.58 76.0192 165.4 75.7792 165.36 75.4792C165.36 75.4392 165.24 67.3592 165.3 66.5392C165.32 66.2592 165.36 65.9792 165.52 65.7392C165.82 65.2392 166.92 65.2792 167.92 65.3192C168.52 65.3392 168.68 66.2192 169.44 65.6392C170.84 64.5792 172.02 65.1192 172.22 65.2192C172.34 65.2992 172.46 65.4392 172.48 65.5792C172.6 66.1192 172.74 67.3392 172.4 68.0392C172.3 68.2992 172.06 68.3992 171.8 68.4392C171.18 68.5192 169.88 68.2792 169.1 69.7992C168.58 70.7992 168.84 71.5392 168.74 75.1592C168.72 75.6992 168.6 76.1192 168.18 76.1392ZM176.439 76.0792C175.919 76.1592 174.059 76.3192 173.799 75.6592C173.559 75.0792 173.719 71.9592 173.719 71.7192C173.679 68.8792 173.639 68.4592 173.639 66.6192C173.639 66.2192 173.759 65.5592 174.359 65.4992C174.819 65.4592 176.099 65.4792 176.119 65.4792C176.699 65.4992 176.879 65.6992 176.979 65.9792C177.079 66.2592 177.079 66.5592 177.079 66.8592C177.099 68.6792 177.259 74.7792 177.039 75.5592C176.939 75.8792 176.799 76.0192 176.439 76.0792ZM176.379 64.6792C176.359 64.6792 174.899 64.8792 174.359 64.7192C173.999 64.5992 173.779 64.4592 173.719 64.0192C173.479 62.6792 173.819 62.2392 173.879 62.1192C173.999 61.9592 174.159 61.8592 174.359 61.8192C174.959 61.7392 176.019 61.7592 176.439 61.8192C176.699 61.8392 176.979 62.0592 177.019 62.3792C177.079 63.0792 177.099 63.7392 176.979 64.1592C176.879 64.4592 176.699 64.6592 176.379 64.6792ZM181.013 76.2592C178.133 75.3192 178.293 72.5592 178.933 71.4392C179.733 69.9992 181.353 69.7592 182.833 69.5192C183.353 69.4392 183.933 69.4192 184.413 69.1992C185.113 68.8792 185.073 68.1792 184.633 67.8192C184.013 67.3392 183.073 67.6192 182.573 68.1192C182.213 68.4992 182.273 68.8992 181.613 69.0392C181.513 69.0592 179.653 69.1792 179.333 69.0192C179.093 68.8992 178.973 68.6792 178.933 68.4192C178.853 67.9392 179.033 67.4992 179.273 67.0992C180.333 65.3392 182.673 64.7192 184.593 64.8792C185.833 64.9792 186.533 65.3792 186.733 65.4992C187.633 65.9792 188.233 66.7992 188.433 67.7992C188.733 69.3392 188.453 73.0392 188.733 74.7992C188.773 75.0192 188.813 75.2392 188.793 75.4792C188.773 75.7792 188.513 76.0992 188.193 76.1592C188.073 76.1992 186.393 76.4192 185.833 76.1192C185.753 76.0792 185.693 75.9992 185.613 75.9392C185.433 75.8192 185.253 75.7992 185.073 75.8592C183.713 76.2792 182.413 76.6992 181.013 76.2592ZM182.313 73.6592C182.753 73.8392 183.753 73.9992 184.293 73.3792C184.893 72.7192 184.993 71.7992 184.233 71.8192C183.173 71.8592 182.593 72.1992 182.273 72.4592C181.773 72.8592 181.973 73.4992 182.313 73.6592ZM191.798 74.8592C191.158 73.6792 191.718 69.1992 191.378 68.5592C191.238 68.2992 190.998 68.2992 190.398 68.1192C189.398 67.8192 189.698 66.1592 189.758 66.0592C190.038 65.4192 190.578 65.4592 191.118 65.2992C191.318 65.2392 191.398 65.0992 191.418 64.8792C191.478 64.3192 191.458 63.7792 191.458 63.2392C191.478 62.5392 191.778 61.9592 192.338 61.8592C192.698 61.7992 193.738 61.7992 193.998 61.8792C194.818 62.1392 194.858 62.6792 194.878 63.2192C194.938 63.7792 194.898 64.3592 194.918 64.9392C194.918 65.0592 195.018 65.1592 195.138 65.1992C195.418 65.2992 196.138 65.2992 196.638 65.6792C197.058 65.9592 196.918 67.2792 196.838 67.4592C196.338 68.4392 195.038 67.7992 194.958 68.5392C194.958 68.6192 194.938 72.2192 194.938 72.3592C194.958 72.6192 194.918 72.9992 195.618 73.3192C196.298 73.6392 197.098 73.7192 197.038 74.5592C197.018 74.9192 196.818 75.9192 196.178 76.1792C196.138 76.1792 195.318 76.6192 193.138 76.0192C193.018 75.9792 192.278 75.7192 191.798 74.8592ZM201.107 76.0792C200.587 76.1592 198.727 76.3192 198.467 75.6592C198.227 75.0792 198.387 71.9592 198.387 71.7192C198.347 68.8792 198.307 68.4592 198.307 66.6192C198.307 66.2192 198.427 65.5592 199.027 65.4992C199.487 65.4592 200.767 65.4792 200.787 65.4792C201.367 65.4992 201.547 65.6992 201.647 65.9792C201.747 66.2592 201.747 66.5592 201.747 66.8592C201.767 68.6792 201.927 74.7792 201.707 75.5592C201.607 75.8792 201.467 76.0192 201.107 76.0792ZM201.047 64.6792C201.027 64.6792 199.567 64.8792 199.027 64.7192C198.667 64.5992 198.447 64.4592 198.387 64.0192C198.147 62.6792 198.487 62.2392 198.547 62.1192C198.667 61.9592 198.827 61.8592 199.027 61.8192C199.627 61.7392 200.687 61.7592 201.107 61.8192C201.367 61.8392 201.647 62.0592 201.687 62.3792C201.747 63.0792 201.767 63.7392 201.647 64.1592C201.547 64.4592 201.367 64.6592 201.047 64.6792ZM205.861 75.6992C204.821 75.1392 203.181 73.9792 203.181 70.8992C203.041 69.6992 203.701 65.5392 208.521 65.0992C209.201 65.0392 213.961 65.0592 214.281 70.5392C214.561 75.1592 210.001 77.8992 205.861 75.6992ZM209.141 73.5392C210.581 73.2792 210.681 71.3592 210.681 70.8792C210.721 69.5192 210.101 68.2792 208.901 68.2192C207.061 68.1192 206.781 69.8992 206.741 70.9192C206.741 71.0992 206.681 72.9792 208.121 73.4992C208.461 73.6192 208.801 73.5992 209.141 73.5392ZM225.911 67.7992C225.971 68.0792 226.191 68.4992 226.091 74.9192C226.071 76.0392 225.591 76.1392 225.371 76.1592C224.511 76.2592 223.231 76.1792 222.991 76.0992C222.791 76.0192 222.671 75.8792 222.591 75.6992C222.311 74.9192 222.551 74.7592 222.431 70.0792C222.391 68.3792 221.191 67.6992 220.191 68.3792C219.751 68.6792 219.531 69.0992 219.431 69.5992C219.331 70.1792 219.391 74.9792 219.391 75.0192C219.371 76.0392 219.071 76.1792 218.351 76.1992C217.911 76.2192 216.651 76.1992 216.651 76.1992C216.271 76.1792 215.791 76.1192 215.751 74.9792C215.731 74.5792 215.691 74.1992 215.691 73.7992C215.611 71.4792 215.711 67.1192 215.731 67.0792C215.731 66.6992 215.791 66.3192 215.911 65.9592C216.011 65.6392 216.471 65.3392 216.751 65.3192C216.771 65.3192 218.111 65.1992 218.711 65.5192C219.591 65.9592 219.331 65.6992 220.571 65.2992C220.871 65.1792 221.191 65.0992 221.511 65.0592C221.951 65.0192 224.371 64.9992 225.451 66.6592C225.671 66.9992 225.851 67.3792 225.911 67.7992ZM233.98 76.3792C233.46 76.4792 230.48 76.7592 228.76 75.4592C228.1 74.9592 227.66 74.4792 227.5 73.6792C227.32 72.7992 227.72 72.2992 228.24 72.1792C228.42 72.1392 229.92 71.9992 230.4 72.3792C230.56 72.4992 230.72 72.6592 230.8 72.8392C231.22 73.6992 232.26 74.1392 233.32 73.7592C233.56 73.6792 234.68 72.7192 232.64 72.1592C232.22 72.0392 231.8 71.9992 231.38 71.8792C228.64 71.0992 227.74 70.1192 227.64 68.8592C227.62 68.5392 227.28 65.3992 232.08 65.0392C235.88 64.7592 237.02 67.1592 236.94 68.4392C236.94 68.4592 237.04 69.1992 235.52 69.1992C234.28 69.1992 234.12 69.1392 234.06 69.1192C233.5 68.9592 233.54 68.4792 233.2 68.1192C232.64 67.4992 231.4 67.7792 231.46 68.4192C231.48 68.6192 231.58 68.7592 231.74 68.8792C232.82 69.7392 236.54 68.9392 237.24 72.0792C237.98 75.3392 234.06 76.3592 233.98 76.3792Z" fill="#515151"/>
<path d="M57.1992 118.199C57.1992 115.99 58.9901 114.199 61.1992 114.199H264.199C266.408 114.199 268.199 115.99 268.199 118.199V133.199H57.1992V118.199Z" fill="#BABABA"/>
<path d="M75.8683 120.926V128.199H74.8597L71.163 122.865H71.0955V128.199H69.9982V120.926H71.0138L74.7141 126.267H74.7816V120.926H75.8683ZM79.2346 128.309C78.6971 128.309 78.2343 128.194 77.8461 127.965C77.4602 127.733 77.1619 127.407 76.9512 126.988C76.7428 126.567 76.6387 126.073 76.6387 125.507C76.6387 124.949 76.7428 124.456 76.9512 124.03C77.1619 123.604 77.4554 123.271 77.8319 123.032C78.2106 122.793 78.6533 122.674 79.16 122.674C79.4677 122.674 79.766 122.725 80.0549 122.826C80.3437 122.928 80.6029 123.088 80.8326 123.306C81.0622 123.524 81.2433 123.806 81.3759 124.154C81.5085 124.5 81.5748 124.92 81.5748 125.415V125.792H77.2388V124.996H80.5343C80.5343 124.717 80.4775 124.469 80.3638 124.254C80.2502 124.036 80.0904 123.864 79.8844 123.739C79.6808 123.614 79.4417 123.551 79.1671 123.551C78.8688 123.551 78.6084 123.624 78.3858 123.771C78.1657 123.915 77.9952 124.105 77.8745 124.339C77.7561 124.571 77.6969 124.823 77.6969 125.096V125.717C77.6969 126.082 77.7608 126.392 77.8887 126.647C78.0189 126.903 78.2 127.098 78.432 127.233C78.664 127.366 78.9351 127.432 79.2452 127.432C79.4464 127.432 79.6299 127.404 79.7956 127.347C79.9614 127.288 80.1046 127.2 80.2253 127.084C80.3461 126.968 80.4384 126.825 80.5023 126.654L81.5073 126.836C81.4268 127.132 81.2824 127.391 81.074 127.613C80.8681 127.833 80.6088 128.005 80.2963 128.128C79.9862 128.249 79.6323 128.309 79.2346 128.309ZM84.5398 130.358C84.1065 130.358 83.7337 130.301 83.4212 130.188C83.111 130.074 82.8577 129.924 82.6612 129.737C82.4647 129.55 82.3179 129.345 82.2209 129.123L83.1335 128.746C83.1974 128.85 83.2827 128.96 83.3892 129.076C83.4981 129.195 83.6449 129.295 83.8295 129.378C84.0166 129.461 84.2569 129.502 84.5504 129.502C84.9529 129.502 85.2855 129.404 85.5483 129.208C85.8111 129.014 85.9425 128.703 85.9425 128.277V127.205H85.875C85.8111 127.321 85.7188 127.45 85.598 127.592C85.4796 127.734 85.3163 127.857 85.108 127.961C84.8996 128.065 84.6286 128.118 84.2947 128.118C83.8639 128.118 83.4756 128.017 83.13 127.816C82.7867 127.612 82.5144 127.313 82.3132 126.917C82.1143 126.52 82.0149 126.031 82.0149 125.451C82.0149 124.871 82.1132 124.373 82.3097 123.959C82.5085 123.545 82.7808 123.228 83.1264 123.007C83.4721 122.785 83.8639 122.674 84.3018 122.674C84.6404 122.674 84.9138 122.73 85.1222 122.844C85.3305 122.955 85.4927 123.086 85.6087 123.235C85.727 123.384 85.8182 123.515 85.8821 123.629H85.9602V122.745H87.0007V128.32C87.0007 128.789 86.8918 129.173 86.674 129.474C86.4562 129.775 86.1615 129.997 85.7898 130.142C85.4205 130.286 85.0038 130.358 84.5398 130.358ZM84.5291 127.237C84.8345 127.237 85.0926 127.166 85.3033 127.024C85.5163 126.879 85.6773 126.673 85.7862 126.406C85.8975 126.136 85.9531 125.813 85.9531 125.436C85.9531 125.069 85.8987 124.746 85.7898 124.467C85.6809 124.188 85.5211 123.97 85.3104 123.814C85.0997 123.655 84.8393 123.576 84.5291 123.576C84.2095 123.576 83.9432 123.658 83.7301 123.824C83.517 123.988 83.3561 124.21 83.2472 124.492C83.1406 124.774 83.0874 125.088 83.0874 125.436C83.0874 125.794 83.1418 126.108 83.2507 126.377C83.3596 126.647 83.5206 126.858 83.7337 127.01C83.9491 127.161 84.2143 127.237 84.5291 127.237ZM89.5121 128.32C89.1664 128.32 88.8539 128.256 88.5746 128.128C88.2952 127.998 88.0739 127.81 87.9105 127.564C87.7495 127.317 87.669 127.016 87.669 126.658C87.669 126.35 87.7282 126.097 87.8466 125.898C87.965 125.699 88.1248 125.542 88.326 125.426C88.5272 125.31 88.7521 125.222 89.0007 125.163C89.2493 125.104 89.5026 125.059 89.7607 125.028C90.0874 124.99 90.3525 124.959 90.5561 124.936C90.7597 124.91 90.9077 124.868 91 124.811C91.0923 124.755 91.1385 124.662 91.1385 124.534V124.51C91.1385 124.199 91.0509 123.959 90.8757 123.789C90.7029 123.618 90.4448 123.533 90.1016 123.533C89.7441 123.533 89.4624 123.612 89.2564 123.771C89.0528 123.927 88.9119 124.101 88.8338 124.293L87.8359 124.066C87.9543 123.734 88.1271 123.467 88.3544 123.263C88.584 123.057 88.848 122.908 89.1463 122.816C89.4446 122.721 89.7583 122.674 90.0874 122.674C90.3052 122.674 90.536 122.7 90.7798 122.752C91.026 122.801 91.2557 122.894 91.4688 123.029C91.6842 123.164 91.8606 123.357 91.9979 123.608C92.1352 123.856 92.2038 124.179 92.2038 124.577V128.199H91.1669V127.453H91.1243C91.0556 127.591 90.9527 127.726 90.8153 127.858C90.678 127.991 90.5017 128.101 90.2862 128.189C90.0708 128.276 89.8127 128.32 89.5121 128.32ZM89.7429 127.468C90.0365 127.468 90.2874 127.41 90.4957 127.294C90.7064 127.178 90.8662 127.026 90.9751 126.839C91.0864 126.65 91.142 126.447 91.142 126.232V125.529C91.1042 125.567 91.0308 125.602 90.9219 125.635C90.8153 125.666 90.6934 125.693 90.5561 125.717C90.4188 125.738 90.285 125.758 90.1548 125.777C90.0246 125.794 89.9157 125.808 89.8281 125.82C89.6222 125.846 89.4339 125.89 89.2635 125.951C89.0954 126.013 88.9605 126.102 88.8587 126.218C88.7592 126.331 88.7095 126.483 88.7095 126.672C88.7095 126.935 88.8066 127.134 89.0007 127.269C89.1948 127.401 89.4422 127.468 89.7429 127.468ZM95.6642 122.745V123.597H92.6848V122.745H95.6642ZM93.4838 121.438H94.5456V126.598C94.5456 126.804 94.5764 126.959 94.638 127.063C94.6995 127.165 94.7788 127.234 94.8759 127.272C94.9753 127.308 95.083 127.326 95.199 127.326C95.2843 127.326 95.3588 127.32 95.4228 127.308C95.4867 127.296 95.5364 127.287 95.5719 127.279L95.7637 128.157C95.7021 128.18 95.6145 128.204 95.5009 128.228C95.3873 128.254 95.2452 128.268 95.0748 128.27C94.7954 128.275 94.535 128.225 94.2935 128.121C94.052 128.017 93.8567 127.856 93.7076 127.638C93.5584 127.42 93.4838 127.147 93.4838 126.818V121.438ZM96.3388 128.199V122.745H97.4006V128.199H96.3388ZM96.875 121.903C96.6903 121.903 96.5317 121.842 96.3991 121.718C96.2689 121.593 96.2038 121.444 96.2038 121.271C96.2038 121.096 96.2689 120.947 96.3991 120.824C96.5317 120.698 96.6903 120.635 96.875 120.635C97.0597 120.635 97.2171 120.698 97.3473 120.824C97.4799 120.947 97.5462 121.096 97.5462 121.271C97.5462 121.444 97.4799 121.593 97.3473 121.718C97.2171 121.842 97.0597 121.903 96.875 121.903ZM102.995 122.745L101.017 128.199H99.8809L97.8993 122.745H99.0392L100.421 126.942H100.477L101.855 122.745H102.995ZM105.658 128.309C105.121 128.309 104.658 128.194 104.27 127.965C103.884 127.733 103.586 127.407 103.375 126.988C103.167 126.567 103.062 126.073 103.062 125.507C103.062 124.949 103.167 124.456 103.375 124.03C103.586 123.604 103.879 123.271 104.256 123.032C104.634 122.793 105.077 122.674 105.584 122.674C105.892 122.674 106.19 122.725 106.479 122.826C106.768 122.928 107.027 123.088 107.256 123.306C107.486 123.524 107.667 123.806 107.8 124.154C107.932 124.5 107.999 124.92 107.999 125.415V125.792H103.663V124.996H106.958C106.958 124.717 106.901 124.469 106.788 124.254C106.674 124.036 106.514 123.864 106.308 123.739C106.105 123.614 105.866 123.551 105.591 123.551C105.293 123.551 105.032 123.624 104.81 123.771C104.589 123.915 104.419 124.105 104.298 124.339C104.18 124.571 104.121 124.823 104.121 125.096V125.717C104.121 126.082 104.185 126.392 104.312 126.647C104.443 126.903 104.624 127.098 104.856 127.233C105.088 127.366 105.359 127.432 105.669 127.432C105.87 127.432 106.054 127.404 106.219 127.347C106.385 127.288 106.528 127.2 106.649 127.084C106.77 126.968 106.862 126.825 106.926 126.654L107.931 126.836C107.851 127.132 107.706 127.391 107.498 127.613C107.292 127.833 107.033 128.005 106.72 128.128C106.41 128.249 106.056 128.309 105.658 128.309ZM110.908 128.199V120.926H115.468V121.871H112.006V124.087H115.23V125.028H112.006V127.255H115.511V128.199H110.908ZM116.434 120.926H117.765L120.081 126.58H120.166L122.481 120.926H123.813V128.199H122.769V122.936H122.702L120.557 128.189H119.69L117.545 122.933H117.478V128.199H116.434V120.926ZM129.585 120.926H130.686V125.71C130.686 126.219 130.567 126.67 130.327 127.063C130.088 127.453 129.752 127.761 129.319 127.986C128.886 128.209 128.378 128.32 127.795 128.32C127.215 128.32 126.709 128.209 126.276 127.986C125.842 127.761 125.506 127.453 125.267 127.063C125.028 126.67 124.908 126.219 124.908 125.71V120.926H126.006V125.621C126.006 125.95 126.078 126.243 126.222 126.498C126.369 126.754 126.576 126.955 126.844 127.102C127.111 127.246 127.429 127.319 127.795 127.319C128.165 127.319 128.483 127.246 128.751 127.102C129.021 126.955 129.227 126.754 129.369 126.498C129.513 126.243 129.585 125.95 129.585 125.621V120.926ZM131.781 128.199V120.926H132.879V127.255H136.174V128.199H131.781ZM139.284 128.299C138.775 128.299 138.325 128.211 137.934 128.036C137.546 127.861 137.242 127.619 137.022 127.311C136.802 127.004 136.693 126.653 136.695 126.26C136.693 125.953 136.756 125.67 136.883 125.412C137.014 125.151 137.19 124.935 137.412 124.762C137.635 124.587 137.884 124.475 138.158 124.428V124.385C137.796 124.298 137.506 124.104 137.288 123.803C137.07 123.502 136.963 123.157 136.965 122.766C136.963 122.394 137.061 122.063 137.26 121.772C137.461 121.478 137.737 121.247 138.087 121.079C138.438 120.911 138.836 120.827 139.284 120.827C139.727 120.827 140.122 120.912 140.47 121.083C140.82 121.251 141.096 121.482 141.297 121.775C141.499 122.066 141.6 122.397 141.603 122.766C141.6 123.157 141.489 123.502 141.269 123.803C141.049 124.104 140.762 124.298 140.41 124.385V124.428C140.682 124.475 140.927 124.587 141.145 124.762C141.365 124.935 141.54 125.151 141.67 125.412C141.803 125.67 141.87 125.953 141.873 126.26C141.87 126.653 141.759 127.004 141.539 127.311C141.319 127.619 141.013 127.861 140.623 128.036C140.234 128.211 139.788 128.299 139.284 128.299ZM139.284 127.4C139.585 127.4 139.845 127.35 140.065 127.251C140.285 127.149 140.456 127.008 140.577 126.828C140.697 126.646 140.759 126.433 140.761 126.189C140.759 125.936 140.693 125.712 140.562 125.518C140.434 125.324 140.26 125.171 140.04 125.06C139.82 124.949 139.568 124.893 139.284 124.893C138.997 124.893 138.743 124.949 138.52 125.06C138.298 125.171 138.123 125.324 137.995 125.518C137.867 125.712 137.804 125.936 137.807 126.189C137.804 126.433 137.862 126.646 137.981 126.828C138.101 127.008 138.273 127.149 138.496 127.251C138.718 127.35 138.981 127.4 139.284 127.4ZM139.284 124.016C139.525 124.016 139.74 123.967 139.927 123.87C140.114 123.773 140.26 123.638 140.367 123.466C140.476 123.293 140.532 123.09 140.534 122.858C140.532 122.631 140.477 122.432 140.371 122.262C140.266 122.091 140.121 121.96 139.934 121.868C139.747 121.773 139.53 121.725 139.284 121.725C139.033 121.725 138.813 121.773 138.623 121.868C138.436 121.96 138.291 122.091 138.187 122.262C138.082 122.432 138.032 122.631 138.034 122.858C138.032 123.09 138.084 123.293 138.19 123.466C138.297 123.638 138.443 123.773 138.631 123.87C138.82 123.967 139.038 124.016 139.284 124.016ZM148.019 124.101V125.025H144.795V124.101H148.019ZM153.826 120.926V128.199H152.725V122.027H152.683L150.942 123.164V122.113L152.757 120.926H153.826ZM157.832 128.299C157.508 128.294 157.188 128.235 156.874 128.121C156.561 128.007 156.277 127.818 156.021 127.553C155.766 127.288 155.561 126.931 155.407 126.484C155.255 126.037 155.18 125.478 155.18 124.808C155.18 124.173 155.242 123.61 155.368 123.118C155.496 122.625 155.679 122.21 155.918 121.871C156.157 121.53 156.446 121.271 156.785 121.093C157.123 120.916 157.503 120.827 157.925 120.827C158.358 120.827 158.743 120.912 159.079 121.083C159.415 121.253 159.687 121.489 159.896 121.789C160.106 122.09 160.24 122.432 160.297 122.816H159.214C159.14 122.513 158.995 122.265 158.777 122.074C158.559 121.882 158.275 121.786 157.925 121.786C157.392 121.786 156.977 122.018 156.678 122.482C156.382 122.946 156.233 123.591 156.231 124.417H156.284C156.41 124.211 156.563 124.036 156.746 123.892C156.93 123.745 157.136 123.632 157.364 123.554C157.593 123.474 157.835 123.434 158.088 123.434C158.509 123.434 158.891 123.537 159.232 123.743C159.575 123.946 159.848 124.228 160.052 124.588C160.255 124.948 160.357 125.359 160.357 125.824C160.357 126.288 160.252 126.708 160.041 127.084C159.833 127.461 159.539 127.759 159.161 127.979C158.782 128.197 158.339 128.303 157.832 128.299ZM157.829 127.375C158.108 127.375 158.358 127.307 158.578 127.169C158.798 127.032 158.972 126.847 159.1 126.615C159.228 126.383 159.292 126.124 159.292 125.838C159.292 125.558 159.229 125.304 159.104 125.074C158.981 124.845 158.81 124.662 158.592 124.527C158.377 124.392 158.131 124.325 157.854 124.325C157.643 124.325 157.448 124.365 157.268 124.446C157.09 124.526 156.934 124.637 156.799 124.779C156.664 124.922 156.558 125.085 156.479 125.27C156.404 125.452 156.366 125.645 156.366 125.848C156.366 126.121 156.429 126.373 156.554 126.605C156.682 126.837 156.856 127.024 157.076 127.166C157.299 127.306 157.549 127.375 157.829 127.375ZM163.683 128.32C163.122 128.318 162.642 128.17 162.244 127.876C161.847 127.583 161.543 127.155 161.332 126.594C161.121 126.033 161.016 125.357 161.016 124.566C161.016 123.778 161.121 123.105 161.332 122.546C161.545 121.987 161.85 121.561 162.248 121.267C162.648 120.974 163.126 120.827 163.683 120.827C164.239 120.827 164.716 120.975 165.114 121.271C165.512 121.565 165.816 121.991 166.026 122.549C166.24 123.106 166.346 123.778 166.346 124.566C166.346 125.359 166.241 126.037 166.03 126.598C165.819 127.156 165.515 127.584 165.117 127.88C164.72 128.173 164.241 128.32 163.683 128.32ZM163.683 127.372C164.175 127.372 164.56 127.132 164.837 126.651C165.116 126.17 165.256 125.475 165.256 124.566C165.256 123.963 165.192 123.453 165.064 123.036C164.939 122.617 164.758 122.3 164.521 122.084C164.286 121.866 164.007 121.757 163.683 121.757C163.193 121.757 162.808 121.999 162.529 122.482C162.249 122.965 162.108 123.66 162.106 124.566C162.106 125.172 162.169 125.685 162.294 126.104C162.422 126.521 162.603 126.837 162.838 127.052C163.072 127.265 163.354 127.372 163.683 127.372ZM166.847 121.871V120.926H172.475V121.871H170.206V128.199H169.112V121.871H166.847ZM173.491 128.267C173.297 128.267 173.13 128.198 172.991 128.061C172.851 127.921 172.781 127.753 172.781 127.556C172.781 127.362 172.851 127.197 172.991 127.059C173.13 126.92 173.297 126.85 173.491 126.85C173.686 126.85 173.853 126.92 173.992 127.059C174.132 127.197 174.202 127.362 174.202 127.556C174.202 127.687 174.169 127.806 174.102 127.915C174.038 128.022 173.953 128.107 173.847 128.171C173.74 128.235 173.622 128.267 173.491 128.267ZM177.422 128.309C176.894 128.309 176.439 128.19 176.058 127.951C175.679 127.709 175.388 127.377 175.184 126.953C174.981 126.529 174.879 126.044 174.879 125.497C174.879 124.943 174.983 124.454 175.191 124.03C175.4 123.604 175.693 123.271 176.072 123.032C176.451 122.793 176.897 122.674 177.411 122.674C177.825 122.674 178.194 122.751 178.519 122.904C178.843 123.056 179.105 123.269 179.304 123.544C179.505 123.818 179.624 124.139 179.662 124.506H178.629C178.572 124.25 178.442 124.03 178.238 123.846C178.037 123.661 177.767 123.569 177.429 123.569C177.133 123.569 176.873 123.647 176.651 123.803C176.431 123.957 176.259 124.177 176.136 124.463C176.013 124.748 175.951 125.084 175.951 125.472C175.951 125.87 176.012 126.213 176.132 126.502C176.253 126.791 176.424 127.014 176.644 127.173C176.866 127.332 177.128 127.411 177.429 127.411C177.63 127.411 177.812 127.374 177.975 127.301C178.141 127.225 178.28 127.117 178.391 126.978C178.505 126.838 178.584 126.67 178.629 126.473H179.662C179.624 126.826 179.51 127.141 179.318 127.418C179.126 127.695 178.869 127.913 178.547 128.071C178.228 128.23 177.852 128.309 177.422 128.309ZM183.753 125.937V122.745H184.818V128.199H183.774V127.255H183.718C183.592 127.546 183.391 127.788 183.114 127.983C182.839 128.174 182.497 128.27 182.088 128.27C181.737 128.27 181.427 128.193 181.157 128.039C180.89 127.883 180.679 127.652 180.525 127.347C180.374 127.042 180.298 126.664 180.298 126.214V122.745H181.36V126.086C181.36 126.458 181.463 126.754 181.669 126.974C181.874 127.194 182.142 127.304 182.471 127.304C182.67 127.304 182.868 127.255 183.064 127.155C183.263 127.056 183.427 126.905 183.558 126.704C183.69 126.503 183.755 126.247 183.753 125.937ZM185.83 128.199V120.926H186.892V123.629H186.956C187.018 123.515 187.106 123.384 187.222 123.235C187.338 123.086 187.499 122.955 187.705 122.844C187.911 122.73 188.183 122.674 188.522 122.674C188.962 122.674 189.355 122.785 189.701 123.007C190.047 123.23 190.318 123.551 190.514 123.97C190.713 124.389 190.812 124.893 190.812 125.483C190.812 126.072 190.714 126.578 190.518 126.999C190.321 127.418 190.051 127.741 189.708 127.968C189.365 128.193 188.973 128.306 188.533 128.306C188.201 128.306 187.93 128.25 187.719 128.139C187.511 128.028 187.348 127.897 187.229 127.748C187.111 127.599 187.02 127.467 186.956 127.35H186.867V128.199H185.83ZM186.871 125.472C186.871 125.855 186.926 126.192 187.038 126.48C187.149 126.769 187.31 126.995 187.521 127.159C187.731 127.32 187.989 127.4 188.295 127.4C188.612 127.4 188.877 127.316 189.09 127.148C189.303 126.978 189.464 126.747 189.573 126.456C189.684 126.164 189.74 125.837 189.74 125.472C189.74 125.112 189.686 124.789 189.577 124.502C189.47 124.216 189.309 123.99 189.094 123.824C188.881 123.658 188.614 123.576 188.295 123.576C187.987 123.576 187.727 123.655 187.513 123.814C187.303 123.972 187.143 124.194 187.034 124.478C186.925 124.762 186.871 125.093 186.871 125.472ZM193.856 128.309C193.318 128.309 192.855 128.194 192.467 127.965C192.081 127.733 191.783 127.407 191.572 126.988C191.364 126.567 191.26 126.073 191.26 125.507C191.26 124.949 191.364 124.456 191.572 124.03C191.783 123.604 192.077 123.271 192.453 123.032C192.832 122.793 193.274 122.674 193.781 122.674C194.089 122.674 194.387 122.725 194.676 122.826C194.965 122.928 195.224 123.088 195.454 123.306C195.683 123.524 195.864 123.806 195.997 124.154C196.13 124.5 196.196 124.92 196.196 125.415V125.792H191.86V124.996H195.155C195.155 124.717 195.099 124.469 194.985 124.254C194.871 124.036 194.711 123.864 194.506 123.739C194.302 123.614 194.063 123.551 193.788 123.551C193.49 123.551 193.229 123.624 193.007 123.771C192.787 123.915 192.616 124.105 192.496 124.339C192.377 124.571 192.318 124.823 192.318 125.096V125.717C192.318 126.082 192.382 126.392 192.51 126.647C192.64 126.903 192.821 127.098 193.053 127.233C193.285 127.366 193.556 127.432 193.866 127.432C194.068 127.432 194.251 127.404 194.417 127.347C194.582 127.288 194.726 127.2 194.846 127.084C194.967 126.968 195.059 126.825 195.123 126.654L196.128 126.836C196.048 127.132 195.903 127.391 195.695 127.613C195.489 127.833 195.23 128.005 194.917 128.128C194.607 128.249 194.253 128.309 193.856 128.309Z" fill="black"/>
<g filter="url(#filter1_i_2303_2230)">
<rect width="211" height="19" transform="translate(57.1992 133.199)" fill="#E9E9E9"/>
<path d="M75.8683 139.926V147.199H74.8597L71.163 141.865H71.0955V147.199H69.9982V139.926H71.0138L74.7141 145.267H74.7816V139.926H75.8683ZM79.2346 147.309C78.6971 147.309 78.2343 147.194 77.8461 146.965C77.4602 146.733 77.1619 146.407 76.9512 145.988C76.7428 145.567 76.6387 145.073 76.6387 144.507C76.6387 143.949 76.7428 143.456 76.9512 143.03C77.1619 142.604 77.4554 142.271 77.8319 142.032C78.2106 141.793 78.6533 141.674 79.16 141.674C79.4677 141.674 79.766 141.725 80.0549 141.826C80.3437 141.928 80.6029 142.088 80.8326 142.306C81.0622 142.524 81.2433 142.806 81.3759 143.154C81.5085 143.5 81.5748 143.92 81.5748 144.415V144.792H77.2388V143.996H80.5343C80.5343 143.717 80.4775 143.469 80.3638 143.254C80.2502 143.036 80.0904 142.864 79.8844 142.739C79.6808 142.614 79.4417 142.551 79.1671 142.551C78.8688 142.551 78.6084 142.624 78.3858 142.771C78.1657 142.915 77.9952 143.105 77.8745 143.339C77.7561 143.571 77.6969 143.823 77.6969 144.096V144.717C77.6969 145.082 77.7608 145.392 77.8887 145.647C78.0189 145.903 78.2 146.098 78.432 146.233C78.664 146.366 78.9351 146.432 79.2452 146.432C79.4464 146.432 79.6299 146.404 79.7956 146.347C79.9614 146.288 80.1046 146.2 80.2253 146.084C80.3461 145.968 80.4384 145.825 80.5023 145.654L81.5073 145.836C81.4268 146.132 81.2824 146.391 81.074 146.613C80.8681 146.833 80.6088 147.005 80.2963 147.128C79.9862 147.249 79.6323 147.309 79.2346 147.309ZM84.5398 149.358C84.1065 149.358 83.7337 149.301 83.4212 149.188C83.111 149.074 82.8577 148.924 82.6612 148.737C82.4647 148.55 82.3179 148.345 82.2209 148.123L83.1335 147.746C83.1974 147.85 83.2827 147.96 83.3892 148.076C83.4981 148.195 83.6449 148.295 83.8295 148.378C84.0166 148.461 84.2569 148.502 84.5504 148.502C84.9529 148.502 85.2855 148.404 85.5483 148.208C85.8111 148.014 85.9425 147.703 85.9425 147.277V146.205H85.875C85.8111 146.321 85.7188 146.45 85.598 146.592C85.4796 146.734 85.3163 146.857 85.108 146.961C84.8996 147.065 84.6286 147.118 84.2947 147.118C83.8639 147.118 83.4756 147.017 83.13 146.816C82.7867 146.612 82.5144 146.313 82.3132 145.917C82.1143 145.52 82.0149 145.031 82.0149 144.451C82.0149 143.871 82.1132 143.373 82.3097 142.959C82.5085 142.545 82.7808 142.228 83.1264 142.007C83.4721 141.785 83.8639 141.674 84.3018 141.674C84.6404 141.674 84.9138 141.73 85.1222 141.844C85.3305 141.955 85.4927 142.086 85.6087 142.235C85.727 142.384 85.8182 142.515 85.8821 142.629H85.9602V141.745H87.0007V147.32C87.0007 147.789 86.8918 148.173 86.674 148.474C86.4562 148.775 86.1615 148.997 85.7898 149.142C85.4205 149.286 85.0038 149.358 84.5398 149.358ZM84.5291 146.237C84.8345 146.237 85.0926 146.166 85.3033 146.024C85.5163 145.879 85.6773 145.673 85.7862 145.406C85.8975 145.136 85.9531 144.813 85.9531 144.436C85.9531 144.069 85.8987 143.746 85.7898 143.467C85.6809 143.188 85.5211 142.97 85.3104 142.814C85.0997 142.655 84.8393 142.576 84.5291 142.576C84.2095 142.576 83.9432 142.658 83.7301 142.824C83.517 142.988 83.3561 143.21 83.2472 143.492C83.1406 143.774 83.0874 144.088 83.0874 144.436C83.0874 144.794 83.1418 145.108 83.2507 145.377C83.3596 145.647 83.5206 145.858 83.7337 146.01C83.9491 146.161 84.2143 146.237 84.5291 146.237ZM89.5121 147.32C89.1664 147.32 88.8539 147.256 88.5746 147.128C88.2952 146.998 88.0739 146.81 87.9105 146.564C87.7495 146.317 87.669 146.016 87.669 145.658C87.669 145.35 87.7282 145.097 87.8466 144.898C87.965 144.699 88.1248 144.542 88.326 144.426C88.5272 144.31 88.7521 144.222 89.0007 144.163C89.2493 144.104 89.5026 144.059 89.7607 144.028C90.0874 143.99 90.3525 143.959 90.5561 143.936C90.7597 143.91 90.9077 143.868 91 143.811C91.0923 143.755 91.1385 143.662 91.1385 143.534V143.51C91.1385 143.199 91.0509 142.959 90.8757 142.789C90.7029 142.618 90.4448 142.533 90.1016 142.533C89.7441 142.533 89.4624 142.612 89.2564 142.771C89.0528 142.927 88.9119 143.101 88.8338 143.293L87.8359 143.066C87.9543 142.734 88.1271 142.467 88.3544 142.263C88.584 142.057 88.848 141.908 89.1463 141.816C89.4446 141.721 89.7583 141.674 90.0874 141.674C90.3052 141.674 90.536 141.7 90.7798 141.752C91.026 141.801 91.2557 141.894 91.4688 142.029C91.6842 142.164 91.8606 142.357 91.9979 142.608C92.1352 142.856 92.2038 143.179 92.2038 143.577V147.199H91.1669V146.453H91.1243C91.0556 146.591 90.9527 146.726 90.8153 146.858C90.678 146.991 90.5017 147.101 90.2862 147.189C90.0708 147.276 89.8127 147.32 89.5121 147.32ZM89.7429 146.468C90.0365 146.468 90.2874 146.41 90.4957 146.294C90.7064 146.178 90.8662 146.026 90.9751 145.839C91.0864 145.65 91.142 145.447 91.142 145.232V144.529C91.1042 144.567 91.0308 144.602 90.9219 144.635C90.8153 144.666 90.6934 144.693 90.5561 144.717C90.4188 144.738 90.285 144.758 90.1548 144.777C90.0246 144.794 89.9157 144.808 89.8281 144.82C89.6222 144.846 89.4339 144.89 89.2635 144.951C89.0954 145.013 88.9605 145.102 88.8587 145.218C88.7592 145.331 88.7095 145.483 88.7095 145.672C88.7095 145.935 88.8066 146.134 89.0007 146.269C89.1948 146.401 89.4422 146.468 89.7429 146.468ZM95.6642 141.745V142.597H92.6848V141.745H95.6642ZM93.4838 140.438H94.5456V145.598C94.5456 145.804 94.5764 145.959 94.638 146.063C94.6995 146.165 94.7788 146.234 94.8759 146.272C94.9753 146.308 95.083 146.326 95.199 146.326C95.2843 146.326 95.3588 146.32 95.4228 146.308C95.4867 146.296 95.5364 146.287 95.5719 146.279L95.7637 147.157C95.7021 147.18 95.6145 147.204 95.5009 147.228C95.3873 147.254 95.2452 147.268 95.0748 147.27C94.7954 147.275 94.535 147.225 94.2935 147.121C94.052 147.017 93.8567 146.856 93.7076 146.638C93.5584 146.42 93.4838 146.147 93.4838 145.818V140.438ZM96.3388 147.199V141.745H97.4006V147.199H96.3388ZM96.875 140.903C96.6903 140.903 96.5317 140.842 96.3991 140.718C96.2689 140.593 96.2038 140.444 96.2038 140.271C96.2038 140.096 96.2689 139.947 96.3991 139.824C96.5317 139.698 96.6903 139.635 96.875 139.635C97.0597 139.635 97.2171 139.698 97.3473 139.824C97.4799 139.947 97.5462 140.096 97.5462 140.271C97.5462 140.444 97.4799 140.593 97.3473 140.718C97.2171 140.842 97.0597 140.903 96.875 140.903ZM102.995 141.745L101.017 147.199H99.8809L97.8993 141.745H99.0392L100.421 145.942H100.477L101.855 141.745H102.995ZM105.658 147.309C105.121 147.309 104.658 147.194 104.27 146.965C103.884 146.733 103.586 146.407 103.375 145.988C103.167 145.567 103.062 145.073 103.062 144.507C103.062 143.949 103.167 143.456 103.375 143.03C103.586 142.604 103.879 142.271 104.256 142.032C104.634 141.793 105.077 141.674 105.584 141.674C105.892 141.674 106.19 141.725 106.479 141.826C106.768 141.928 107.027 142.088 107.256 142.306C107.486 142.524 107.667 142.806 107.8 143.154C107.932 143.5 107.999 143.92 107.999 144.415V144.792H103.663V143.996H106.958C106.958 143.717 106.901 143.469 106.788 143.254C106.674 143.036 106.514 142.864 106.308 142.739C106.105 142.614 105.866 142.551 105.591 142.551C105.293 142.551 105.032 142.624 104.81 142.771C104.589 142.915 104.419 143.105 104.298 143.339C104.18 143.571 104.121 143.823 104.121 144.096V144.717C104.121 145.082 104.185 145.392 104.312 145.647C104.443 145.903 104.624 146.098 104.856 146.233C105.088 146.366 105.359 146.432 105.669 146.432C105.87 146.432 106.054 146.404 106.219 146.347C106.385 146.288 106.528 146.2 106.649 146.084C106.77 145.968 106.862 145.825 106.926 145.654L107.931 145.836C107.851 146.132 107.706 146.391 107.498 146.613C107.292 146.833 107.033 147.005 106.72 147.128C106.41 147.249 106.056 147.309 105.658 147.309ZM110.908 147.199V139.926H115.468V140.871H112.006V143.087H115.23V144.028H112.006V146.255H115.511V147.199H110.908ZM116.434 139.926H117.765L120.081 145.58H120.166L122.481 139.926H123.813V147.199H122.769V141.936H122.702L120.557 147.189H119.69L117.545 141.933H117.478V147.199H116.434V139.926ZM129.585 139.926H130.686V144.71C130.686 145.219 130.567 145.67 130.327 146.063C130.088 146.453 129.752 146.761 129.319 146.986C128.886 147.209 128.378 147.32 127.795 147.32C127.215 147.32 126.709 147.209 126.276 146.986C125.842 146.761 125.506 146.453 125.267 146.063C125.028 145.67 124.908 145.219 124.908 144.71V139.926H126.006V144.621C126.006 144.95 126.078 145.243 126.222 145.498C126.369 145.754 126.576 145.955 126.844 146.102C127.111 146.246 127.429 146.319 127.795 146.319C128.165 146.319 128.483 146.246 128.751 146.102C129.021 145.955 129.227 145.754 129.369 145.498C129.513 145.243 129.585 144.95 129.585 144.621V139.926ZM131.781 147.199V139.926H132.879V146.255H136.174V147.199H131.781ZM139.284 147.299C138.775 147.299 138.325 147.211 137.934 147.036C137.546 146.861 137.242 146.619 137.022 146.311C136.802 146.004 136.693 145.653 136.695 145.26C136.693 144.953 136.756 144.67 136.883 144.412C137.014 144.151 137.19 143.935 137.412 143.762C137.635 143.587 137.884 143.475 138.158 143.428V143.385C137.796 143.298 137.506 143.104 137.288 142.803C137.07 142.502 136.963 142.157 136.965 141.766C136.963 141.394 137.061 141.063 137.26 140.772C137.461 140.478 137.737 140.247 138.087 140.079C138.438 139.911 138.836 139.827 139.284 139.827C139.727 139.827 140.122 139.912 140.47 140.083C140.82 140.251 141.096 140.482 141.297 140.775C141.499 141.066 141.6 141.397 141.603 141.766C141.6 142.157 141.489 142.502 141.269 142.803C141.049 143.104 140.762 143.298 140.41 143.385V143.428C140.682 143.475 140.927 143.587 141.145 143.762C141.365 143.935 141.54 144.151 141.67 144.412C141.803 144.67 141.87 144.953 141.873 145.26C141.87 145.653 141.759 146.004 141.539 146.311C141.319 146.619 141.013 146.861 140.623 147.036C140.234 147.211 139.788 147.299 139.284 147.299ZM139.284 146.4C139.585 146.4 139.845 146.35 140.065 146.251C140.285 146.149 140.456 146.008 140.577 145.828C140.697 145.646 140.759 145.433 140.761 145.189C140.759 144.936 140.693 144.712 140.562 144.518C140.434 144.324 140.26 144.171 140.04 144.06C139.82 143.949 139.568 143.893 139.284 143.893C138.997 143.893 138.743 143.949 138.52 144.06C138.298 144.171 138.123 144.324 137.995 144.518C137.867 144.712 137.804 144.936 137.807 145.189C137.804 145.433 137.862 145.646 137.981 145.828C138.101 146.008 138.273 146.149 138.496 146.251C138.718 146.35 138.981 146.4 139.284 146.4ZM139.284 143.016C139.525 143.016 139.74 142.967 139.927 142.87C140.114 142.773 140.26 142.638 140.367 142.466C140.476 142.293 140.532 142.09 140.534 141.858C140.532 141.631 140.477 141.432 140.371 141.262C140.266 141.091 140.121 140.96 139.934 140.868C139.747 140.773 139.53 140.725 139.284 140.725C139.033 140.725 138.813 140.773 138.623 140.868C138.436 140.96 138.291 141.091 138.187 141.262C138.082 141.432 138.032 141.631 138.034 141.858C138.032 142.09 138.084 142.293 138.19 142.466C138.297 142.638 138.443 142.773 138.631 142.87C138.82 142.967 139.038 143.016 139.284 143.016ZM148.019 143.101V144.025H144.795V143.101H148.019ZM153.467 147.299C153.022 147.299 152.622 147.213 152.267 147.043C151.914 146.87 151.633 146.633 151.422 146.333C151.211 146.032 151.099 145.689 151.085 145.303H152.15C152.176 145.615 152.314 145.872 152.565 146.074C152.816 146.275 153.117 146.375 153.467 146.375C153.747 146.375 153.994 146.311 154.21 146.184C154.427 146.053 154.598 145.875 154.721 145.647C154.846 145.42 154.909 145.161 154.909 144.87C154.909 144.574 154.845 144.31 154.717 144.078C154.589 143.846 154.413 143.663 154.188 143.531C153.966 143.398 153.71 143.331 153.421 143.328C153.201 143.328 152.98 143.366 152.757 143.442C152.535 143.518 152.355 143.617 152.217 143.74L151.212 143.591L151.621 139.926H155.619V140.868H152.533L152.303 142.902H152.345C152.487 142.765 152.675 142.65 152.91 142.558C153.147 142.466 153.4 142.419 153.67 142.419C154.112 142.419 154.507 142.525 154.852 142.735C155.2 142.946 155.474 143.234 155.673 143.598C155.874 143.961 155.973 144.377 155.971 144.848C155.973 145.319 155.867 145.74 155.651 146.109C155.438 146.478 155.142 146.77 154.763 146.983C154.387 147.193 153.955 147.299 153.467 147.299ZM159.3 147.32C158.739 147.318 158.259 147.17 157.862 146.876C157.464 146.583 157.16 146.155 156.949 145.594C156.738 145.033 156.633 144.357 156.633 143.566C156.633 142.778 156.738 142.105 156.949 141.546C157.162 140.987 157.468 140.561 157.865 140.267C158.265 139.974 158.744 139.827 159.3 139.827C159.856 139.827 160.333 139.975 160.731 140.271C161.129 140.565 161.433 140.991 161.644 141.549C161.857 142.106 161.963 142.778 161.963 143.566C161.963 144.359 161.858 145.037 161.647 145.598C161.436 146.156 161.132 146.584 160.735 146.88C160.337 147.173 159.859 147.32 159.3 147.32ZM159.3 146.372C159.792 146.372 160.177 146.132 160.454 145.651C160.733 145.17 160.873 144.475 160.873 143.566C160.873 142.963 160.809 142.453 160.681 142.036C160.556 141.617 160.375 141.3 160.138 141.084C159.904 140.866 159.624 140.757 159.3 140.757C158.81 140.757 158.425 140.999 158.146 141.482C157.866 141.965 157.726 142.66 157.723 143.566C157.723 144.172 157.786 144.685 157.911 145.104C158.039 145.521 158.22 145.837 158.455 146.052C158.689 146.265 158.971 146.372 159.3 146.372ZM165.255 147.32C164.694 147.318 164.214 147.17 163.817 146.876C163.419 146.583 163.115 146.155 162.904 145.594C162.693 145.033 162.588 144.357 162.588 143.566C162.588 142.778 162.693 142.105 162.904 141.546C163.117 140.987 163.423 140.561 163.82 140.267C164.22 139.974 164.699 139.827 165.255 139.827C165.811 139.827 166.288 139.975 166.686 140.271C167.084 140.565 167.388 140.991 167.599 141.549C167.812 142.106 167.918 142.778 167.918 143.566C167.918 144.359 167.813 145.037 167.602 145.598C167.392 146.156 167.087 146.584 166.69 146.88C166.292 147.173 165.814 147.32 165.255 147.32ZM165.255 146.372C165.747 146.372 166.132 146.132 166.409 145.651C166.688 145.17 166.828 144.475 166.828 143.566C166.828 142.963 166.764 142.453 166.636 142.036C166.511 141.617 166.33 141.3 166.093 141.084C165.859 140.866 165.579 140.757 165.255 140.757C164.765 140.757 164.38 140.999 164.101 141.482C163.821 141.965 163.681 142.66 163.678 143.566C163.678 144.172 163.741 144.685 163.866 145.104C163.994 145.521 164.175 145.837 164.41 146.052C164.644 146.265 164.926 146.372 165.255 146.372ZM168.419 140.871V139.926H174.047V140.871H171.778V147.199H170.684V140.871H168.419ZM175.064 147.267C174.87 147.267 174.703 147.198 174.563 147.061C174.423 146.921 174.354 146.753 174.354 146.556C174.354 146.362 174.423 146.197 174.563 146.059C174.703 145.92 174.87 145.85 175.064 145.85C175.258 145.85 175.425 145.92 175.564 146.059C175.704 146.197 175.774 146.362 175.774 146.556C175.774 146.687 175.741 146.806 175.675 146.915C175.611 147.022 175.525 147.107 175.419 147.171C175.312 147.235 175.194 147.267 175.064 147.267ZM178.994 147.309C178.466 147.309 178.011 147.19 177.63 146.951C177.251 146.709 176.96 146.377 176.757 145.953C176.553 145.529 176.451 145.044 176.451 144.497C176.451 143.943 176.555 143.454 176.764 143.03C176.972 142.604 177.266 142.271 177.644 142.032C178.023 141.793 178.469 141.674 178.983 141.674C179.397 141.674 179.767 141.751 180.091 141.904C180.415 142.056 180.677 142.269 180.876 142.544C181.077 142.818 181.197 143.139 181.235 143.506H180.201C180.144 143.25 180.014 143.03 179.811 142.846C179.609 142.661 179.339 142.569 179.001 142.569C178.705 142.569 178.446 142.647 178.223 142.803C178.003 142.957 177.831 143.177 177.708 143.463C177.585 143.748 177.524 144.084 177.524 144.472C177.524 144.87 177.584 145.213 177.705 145.502C177.825 145.791 177.996 146.014 178.216 146.173C178.439 146.332 178.7 146.411 179.001 146.411C179.202 146.411 179.384 146.374 179.548 146.301C179.713 146.225 179.852 146.117 179.963 145.978C180.077 145.838 180.156 145.67 180.201 145.473H181.235C181.197 145.826 181.082 146.141 180.89 146.418C180.698 146.695 180.441 146.913 180.119 147.071C179.8 147.23 179.425 147.309 178.994 147.309ZM185.325 144.937V141.745H186.391V147.199H185.347V146.255H185.29C185.164 146.546 184.963 146.788 184.686 146.983C184.411 147.174 184.069 147.27 183.66 147.27C183.309 147.27 182.999 147.193 182.729 147.039C182.462 146.883 182.251 146.652 182.097 146.347C181.946 146.042 181.87 145.664 181.87 145.214V141.745H182.932V145.086C182.932 145.458 183.035 145.754 183.241 145.974C183.447 146.194 183.714 146.304 184.043 146.304C184.242 146.304 184.44 146.255 184.636 146.155C184.835 146.056 185 145.905 185.13 145.704C185.263 145.503 185.328 145.247 185.325 144.937ZM187.403 147.199V139.926H188.464V142.629H188.528C188.59 142.515 188.679 142.384 188.795 142.235C188.911 142.086 189.072 141.955 189.278 141.844C189.483 141.73 189.756 141.674 190.094 141.674C190.535 141.674 190.928 141.785 191.273 142.007C191.619 142.23 191.89 142.551 192.086 142.97C192.285 143.389 192.385 143.893 192.385 144.483C192.385 145.072 192.287 145.578 192.09 145.999C191.894 146.418 191.624 146.741 191.28 146.968C190.937 147.193 190.545 147.306 190.105 147.306C189.773 147.306 189.502 147.25 189.292 147.139C189.083 147.028 188.92 146.897 188.802 146.748C188.683 146.599 188.592 146.467 188.528 146.35H188.439V147.199H187.403ZM188.443 144.472C188.443 144.855 188.499 145.192 188.61 145.48C188.721 145.769 188.882 145.995 189.093 146.159C189.304 146.32 189.562 146.4 189.867 146.4C190.184 146.4 190.449 146.316 190.662 146.148C190.876 145.978 191.037 145.747 191.145 145.456C191.257 145.164 191.312 144.837 191.312 144.472C191.312 144.112 191.258 143.789 191.149 143.502C191.042 143.216 190.881 142.99 190.666 142.824C190.453 142.658 190.187 142.576 189.867 142.576C189.559 142.576 189.299 142.655 189.086 142.814C188.875 142.972 188.715 143.194 188.606 143.478C188.497 143.762 188.443 144.093 188.443 144.472ZM195.428 147.309C194.891 147.309 194.428 147.194 194.039 146.965C193.654 146.733 193.355 146.407 193.145 145.988C192.936 145.567 192.832 145.073 192.832 144.507C192.832 143.949 192.936 143.456 193.145 143.03C193.355 142.604 193.649 142.271 194.025 142.032C194.404 141.793 194.847 141.674 195.353 141.674C195.661 141.674 195.959 141.725 196.248 141.826C196.537 141.928 196.796 142.088 197.026 142.306C197.256 142.524 197.437 142.806 197.569 143.154C197.702 143.5 197.768 143.92 197.768 144.415V144.792H193.432V143.996H196.728C196.728 143.717 196.671 143.469 196.557 143.254C196.444 143.036 196.284 142.864 196.078 142.739C195.874 142.614 195.635 142.551 195.36 142.551C195.062 142.551 194.802 142.624 194.579 142.771C194.359 142.915 194.189 143.105 194.068 143.339C193.949 143.571 193.89 143.823 193.89 144.096V144.717C193.89 145.082 193.954 145.392 194.082 145.647C194.212 145.903 194.393 146.098 194.625 146.233C194.857 146.366 195.128 146.432 195.439 146.432C195.64 146.432 195.823 146.404 195.989 146.347C196.155 146.288 196.298 146.2 196.419 146.084C196.539 145.968 196.632 145.825 196.696 145.654L197.701 145.836C197.62 146.132 197.476 146.391 197.267 146.613C197.061 146.833 196.802 147.005 196.49 147.128C196.18 147.249 195.826 147.309 195.428 147.309Z" fill="black"/>
</g>
<g filter="url(#filter2_i_2303_2230)">
<path d="M57.1992 152.199H268.199V168.199C268.199 170.408 266.408 172.199 264.199 172.199H61.1992C58.9901 172.199 57.1992 170.408 57.1992 168.199V152.199Z" fill="#E9E9E9"/>
<path d="M75.8683 158.926V166.199H74.8597L71.163 160.865H71.0955V166.199H69.9982V158.926H71.0138L74.7141 164.267H74.7816V158.926H75.8683ZM79.2346 166.309C78.6971 166.309 78.2343 166.194 77.8461 165.965C77.4602 165.733 77.1619 165.407 76.9512 164.988C76.7428 164.567 76.6387 164.073 76.6387 163.507C76.6387 162.949 76.7428 162.456 76.9512 162.03C77.1619 161.604 77.4554 161.271 77.8319 161.032C78.2106 160.793 78.6533 160.674 79.16 160.674C79.4677 160.674 79.766 160.725 80.0549 160.826C80.3437 160.928 80.6029 161.088 80.8326 161.306C81.0622 161.524 81.2433 161.806 81.3759 162.154C81.5085 162.5 81.5748 162.92 81.5748 163.415V163.792H77.2388V162.996H80.5343C80.5343 162.717 80.4775 162.469 80.3638 162.254C80.2502 162.036 80.0904 161.864 79.8844 161.739C79.6808 161.614 79.4417 161.551 79.1671 161.551C78.8688 161.551 78.6084 161.624 78.3858 161.771C78.1657 161.915 77.9952 162.105 77.8745 162.339C77.7561 162.571 77.6969 162.823 77.6969 163.096V163.717C77.6969 164.082 77.7608 164.392 77.8887 164.647C78.0189 164.903 78.2 165.098 78.432 165.233C78.664 165.366 78.9351 165.432 79.2452 165.432C79.4464 165.432 79.6299 165.404 79.7956 165.347C79.9614 165.288 80.1046 165.2 80.2253 165.084C80.3461 164.968 80.4384 164.825 80.5023 164.654L81.5073 164.836C81.4268 165.132 81.2824 165.391 81.074 165.613C80.8681 165.833 80.6088 166.005 80.2963 166.128C79.9862 166.249 79.6323 166.309 79.2346 166.309ZM84.5398 168.358C84.1065 168.358 83.7337 168.301 83.4212 168.188C83.111 168.074 82.8577 167.924 82.6612 167.737C82.4647 167.55 82.3179 167.345 82.2209 167.123L83.1335 166.746C83.1974 166.85 83.2827 166.96 83.3892 167.076C83.4981 167.195 83.6449 167.295 83.8295 167.378C84.0166 167.461 84.2569 167.502 84.5504 167.502C84.9529 167.502 85.2855 167.404 85.5483 167.208C85.8111 167.014 85.9425 166.703 85.9425 166.277V165.205H85.875C85.8111 165.321 85.7188 165.45 85.598 165.592C85.4796 165.734 85.3163 165.857 85.108 165.961C84.8996 166.065 84.6286 166.118 84.2947 166.118C83.8639 166.118 83.4756 166.017 83.13 165.816C82.7867 165.612 82.5144 165.313 82.3132 164.917C82.1143 164.52 82.0149 164.031 82.0149 163.451C82.0149 162.871 82.1132 162.373 82.3097 161.959C82.5085 161.545 82.7808 161.228 83.1264 161.007C83.4721 160.785 83.8639 160.674 84.3018 160.674C84.6404 160.674 84.9138 160.73 85.1222 160.844C85.3305 160.955 85.4927 161.086 85.6087 161.235C85.727 161.384 85.8182 161.515 85.8821 161.629H85.9602V160.745H87.0007V166.32C87.0007 166.789 86.8918 167.173 86.674 167.474C86.4562 167.775 86.1615 167.997 85.7898 168.142C85.4205 168.286 85.0038 168.358 84.5398 168.358ZM84.5291 165.237C84.8345 165.237 85.0926 165.166 85.3033 165.024C85.5163 164.879 85.6773 164.673 85.7862 164.406C85.8975 164.136 85.9531 163.813 85.9531 163.436C85.9531 163.069 85.8987 162.746 85.7898 162.467C85.6809 162.188 85.5211 161.97 85.3104 161.814C85.0997 161.655 84.8393 161.576 84.5291 161.576C84.2095 161.576 83.9432 161.658 83.7301 161.824C83.517 161.988 83.3561 162.21 83.2472 162.492C83.1406 162.774 83.0874 163.088 83.0874 163.436C83.0874 163.794 83.1418 164.108 83.2507 164.377C83.3596 164.647 83.5206 164.858 83.7337 165.01C83.9491 165.161 84.2143 165.237 84.5291 165.237ZM89.5121 166.32C89.1664 166.32 88.8539 166.256 88.5746 166.128C88.2952 165.998 88.0739 165.81 87.9105 165.564C87.7495 165.317 87.669 165.016 87.669 164.658C87.669 164.35 87.7282 164.097 87.8466 163.898C87.965 163.699 88.1248 163.542 88.326 163.426C88.5272 163.31 88.7521 163.222 89.0007 163.163C89.2493 163.104 89.5026 163.059 89.7607 163.028C90.0874 162.99 90.3525 162.959 90.5561 162.936C90.7597 162.91 90.9077 162.868 91 162.811C91.0923 162.755 91.1385 162.662 91.1385 162.534V162.51C91.1385 162.199 91.0509 161.959 90.8757 161.789C90.7029 161.618 90.4448 161.533 90.1016 161.533C89.7441 161.533 89.4624 161.612 89.2564 161.771C89.0528 161.927 88.9119 162.101 88.8338 162.293L87.8359 162.066C87.9543 161.734 88.1271 161.467 88.3544 161.263C88.584 161.057 88.848 160.908 89.1463 160.816C89.4446 160.721 89.7583 160.674 90.0874 160.674C90.3052 160.674 90.536 160.7 90.7798 160.752C91.026 160.801 91.2557 160.894 91.4688 161.029C91.6842 161.164 91.8606 161.357 91.9979 161.608C92.1352 161.856 92.2038 162.179 92.2038 162.577V166.199H91.1669V165.453H91.1243C91.0556 165.591 90.9527 165.726 90.8153 165.858C90.678 165.991 90.5017 166.101 90.2862 166.189C90.0708 166.276 89.8127 166.32 89.5121 166.32ZM89.7429 165.468C90.0365 165.468 90.2874 165.41 90.4957 165.294C90.7064 165.178 90.8662 165.026 90.9751 164.839C91.0864 164.65 91.142 164.447 91.142 164.232V163.529C91.1042 163.567 91.0308 163.602 90.9219 163.635C90.8153 163.666 90.6934 163.693 90.5561 163.717C90.4188 163.738 90.285 163.758 90.1548 163.777C90.0246 163.794 89.9157 163.808 89.8281 163.82C89.6222 163.846 89.4339 163.89 89.2635 163.951C89.0954 164.013 88.9605 164.102 88.8587 164.218C88.7592 164.331 88.7095 164.483 88.7095 164.672C88.7095 164.935 88.8066 165.134 89.0007 165.269C89.1948 165.401 89.4422 165.468 89.7429 165.468ZM95.6642 160.745V161.597H92.6848V160.745H95.6642ZM93.4838 159.438H94.5456V164.598C94.5456 164.804 94.5764 164.959 94.638 165.063C94.6995 165.165 94.7788 165.234 94.8759 165.272C94.9753 165.308 95.083 165.326 95.199 165.326C95.2843 165.326 95.3588 165.32 95.4228 165.308C95.4867 165.296 95.5364 165.287 95.5719 165.279L95.7637 166.157C95.7021 166.18 95.6145 166.204 95.5009 166.228C95.3873 166.254 95.2452 166.268 95.0748 166.27C94.7954 166.275 94.535 166.225 94.2935 166.121C94.052 166.017 93.8567 165.856 93.7076 165.638C93.5584 165.42 93.4838 165.147 93.4838 164.818V159.438ZM96.3388 166.199V160.745H97.4006V166.199H96.3388ZM96.875 159.903C96.6903 159.903 96.5317 159.842 96.3991 159.718C96.2689 159.593 96.2038 159.444 96.2038 159.271C96.2038 159.096 96.2689 158.947 96.3991 158.824C96.5317 158.698 96.6903 158.635 96.875 158.635C97.0597 158.635 97.2171 158.698 97.3473 158.824C97.4799 158.947 97.5462 159.096 97.5462 159.271C97.5462 159.444 97.4799 159.593 97.3473 159.718C97.2171 159.842 97.0597 159.903 96.875 159.903ZM102.995 160.745L101.017 166.199H99.8809L97.8993 160.745H99.0392L100.421 164.942H100.477L101.855 160.745H102.995ZM105.658 166.309C105.121 166.309 104.658 166.194 104.27 165.965C103.884 165.733 103.586 165.407 103.375 164.988C103.167 164.567 103.062 164.073 103.062 163.507C103.062 162.949 103.167 162.456 103.375 162.03C103.586 161.604 103.879 161.271 104.256 161.032C104.634 160.793 105.077 160.674 105.584 160.674C105.892 160.674 106.19 160.725 106.479 160.826C106.768 160.928 107.027 161.088 107.256 161.306C107.486 161.524 107.667 161.806 107.8 162.154C107.932 162.5 107.999 162.92 107.999 163.415V163.792H103.663V162.996H106.958C106.958 162.717 106.901 162.469 106.788 162.254C106.674 162.036 106.514 161.864 106.308 161.739C106.105 161.614 105.866 161.551 105.591 161.551C105.293 161.551 105.032 161.624 104.81 161.771C104.589 161.915 104.419 162.105 104.298 162.339C104.18 162.571 104.121 162.823 104.121 163.096V163.717C104.121 164.082 104.185 164.392 104.312 164.647C104.443 164.903 104.624 165.098 104.856 165.233C105.088 165.366 105.359 165.432 105.669 165.432C105.87 165.432 106.054 165.404 106.219 165.347C106.385 165.288 106.528 165.2 106.649 165.084C106.77 164.968 106.862 164.825 106.926 164.654L107.931 164.836C107.851 165.132 107.706 165.391 107.498 165.613C107.292 165.833 107.033 166.005 106.72 166.128C106.41 166.249 106.056 166.309 105.658 166.309ZM110.908 166.199V158.926H115.468V159.871H112.006V162.087H115.23V163.028H112.006V165.255H115.511V166.199H110.908ZM116.434 158.926H117.765L120.081 164.58H120.166L122.481 158.926H123.813V166.199H122.769V160.936H122.702L120.557 166.189H119.69L117.545 160.933H117.478V166.199H116.434V158.926ZM129.585 158.926H130.686V163.71C130.686 164.219 130.567 164.67 130.327 165.063C130.088 165.453 129.752 165.761 129.319 165.986C128.886 166.209 128.378 166.32 127.795 166.32C127.215 166.32 126.709 166.209 126.276 165.986C125.842 165.761 125.506 165.453 125.267 165.063C125.028 164.67 124.908 164.219 124.908 163.71V158.926H126.006V163.621C126.006 163.95 126.078 164.243 126.222 164.498C126.369 164.754 126.576 164.955 126.844 165.102C127.111 165.246 127.429 165.319 127.795 165.319C128.165 165.319 128.483 165.246 128.751 165.102C129.021 164.955 129.227 164.754 129.369 164.498C129.513 164.243 129.585 163.95 129.585 163.621V158.926ZM131.781 166.199V158.926H132.879V165.255H136.174V166.199H131.781ZM139.284 166.299C138.775 166.299 138.325 166.211 137.934 166.036C137.546 165.861 137.242 165.619 137.022 165.311C136.802 165.004 136.693 164.653 136.695 164.26C136.693 163.953 136.756 163.67 136.883 163.412C137.014 163.151 137.19 162.935 137.412 162.762C137.635 162.587 137.884 162.475 138.158 162.428V162.385C137.796 162.298 137.506 162.104 137.288 161.803C137.07 161.502 136.963 161.157 136.965 160.766C136.963 160.394 137.061 160.063 137.26 159.772C137.461 159.478 137.737 159.247 138.087 159.079C138.438 158.911 138.836 158.827 139.284 158.827C139.727 158.827 140.122 158.912 140.47 159.083C140.82 159.251 141.096 159.482 141.297 159.775C141.499 160.066 141.6 160.397 141.603 160.766C141.6 161.157 141.489 161.502 141.269 161.803C141.049 162.104 140.762 162.298 140.41 162.385V162.428C140.682 162.475 140.927 162.587 141.145 162.762C141.365 162.935 141.54 163.151 141.67 163.412C141.803 163.67 141.87 163.953 141.873 164.26C141.87 164.653 141.759 165.004 141.539 165.311C141.319 165.619 141.013 165.861 140.623 166.036C140.234 166.211 139.788 166.299 139.284 166.299ZM139.284 165.4C139.585 165.4 139.845 165.35 140.065 165.251C140.285 165.149 140.456 165.008 140.577 164.828C140.697 164.646 140.759 164.433 140.761 164.189C140.759 163.936 140.693 163.712 140.562 163.518C140.434 163.324 140.26 163.171 140.04 163.06C139.82 162.949 139.568 162.893 139.284 162.893C138.997 162.893 138.743 162.949 138.52 163.06C138.298 163.171 138.123 163.324 137.995 163.518C137.867 163.712 137.804 163.936 137.807 164.189C137.804 164.433 137.862 164.646 137.981 164.828C138.101 165.008 138.273 165.149 138.496 165.251C138.718 165.35 138.981 165.4 139.284 165.4ZM139.284 162.016C139.525 162.016 139.74 161.967 139.927 161.87C140.114 161.773 140.26 161.638 140.367 161.466C140.476 161.293 140.532 161.09 140.534 160.858C140.532 160.631 140.477 160.432 140.371 160.262C140.266 160.091 140.121 159.96 139.934 159.868C139.747 159.773 139.53 159.725 139.284 159.725C139.033 159.725 138.813 159.773 138.623 159.868C138.436 159.96 138.291 160.091 138.187 160.262C138.082 160.432 138.032 160.631 138.034 160.858C138.032 161.09 138.084 161.293 138.19 161.466C138.297 161.638 138.443 161.773 138.631 161.87C138.82 161.967 139.038 162.016 139.284 162.016ZM148.019 162.101V163.025H144.795V162.101H148.019ZM151.067 166.199V165.404L153.528 162.854C153.79 162.577 154.007 162.334 154.178 162.126C154.35 161.915 154.479 161.715 154.565 161.526C154.65 161.337 154.692 161.135 154.692 160.922C154.692 160.681 154.636 160.472 154.522 160.297C154.408 160.12 154.253 159.984 154.057 159.889C153.86 159.792 153.639 159.743 153.393 159.743C153.132 159.743 152.905 159.797 152.711 159.903C152.517 160.01 152.368 160.16 152.263 160.354C152.159 160.548 152.107 160.775 152.107 161.036H151.06C151.06 160.593 151.161 160.206 151.365 159.875C151.569 159.543 151.848 159.286 152.203 159.104C152.558 158.919 152.962 158.827 153.414 158.827C153.871 158.827 154.273 158.918 154.621 159.1C154.972 159.28 155.245 159.527 155.442 159.839C155.638 160.149 155.737 160.5 155.737 160.89C155.737 161.16 155.686 161.424 155.584 161.682C155.484 161.94 155.31 162.228 155.062 162.545C154.813 162.86 154.468 163.242 154.025 163.692L152.58 165.205V165.258H155.854V166.199H151.067ZM159.1 166.299C158.655 166.299 158.255 166.213 157.9 166.043C157.547 165.87 157.265 165.633 157.055 165.333C156.844 165.032 156.732 164.689 156.717 164.303H157.783C157.809 164.615 157.947 164.872 158.198 165.074C158.449 165.275 158.75 165.375 159.1 165.375C159.379 165.375 159.627 165.311 159.842 165.184C160.06 165.053 160.231 164.875 160.354 164.647C160.479 164.42 160.542 164.161 160.542 163.87C160.542 163.574 160.478 163.31 160.35 163.078C160.222 162.846 160.046 162.663 159.821 162.531C159.598 162.398 159.343 162.331 159.054 162.328C158.834 162.328 158.612 162.366 158.39 162.442C158.167 162.518 157.987 162.617 157.85 162.74L156.845 162.591L157.254 158.926H161.252V159.868H158.166L157.935 161.902H157.978C158.12 161.765 158.308 161.65 158.543 161.558C158.779 161.466 159.033 161.419 159.303 161.419C159.745 161.419 160.139 161.525 160.485 161.735C160.833 161.946 161.107 162.234 161.305 162.598C161.507 162.961 161.606 163.377 161.604 163.848C161.606 164.319 161.5 164.74 161.284 165.109C161.071 165.478 160.775 165.77 160.396 165.983C160.02 166.193 159.588 166.299 159.1 166.299ZM164.933 166.32C164.372 166.318 163.892 166.17 163.494 165.876C163.097 165.583 162.793 165.155 162.582 164.594C162.371 164.033 162.266 163.357 162.266 162.566C162.266 161.778 162.371 161.105 162.582 160.546C162.795 159.987 163.1 159.561 163.498 159.267C163.898 158.974 164.376 158.827 164.933 158.827C165.489 158.827 165.966 158.975 166.364 159.271C166.762 159.565 167.066 159.991 167.276 160.549C167.49 161.106 167.596 161.778 167.596 162.566C167.596 163.359 167.491 164.037 167.28 164.598C167.069 165.156 166.765 165.584 166.367 165.88C165.97 166.173 165.491 166.32 164.933 166.32ZM164.933 165.372C165.425 165.372 165.81 165.132 166.087 164.651C166.366 164.17 166.506 163.475 166.506 162.566C166.506 161.963 166.442 161.453 166.314 161.036C166.189 160.617 166.008 160.3 165.771 160.084C165.536 159.866 165.257 159.757 164.933 159.757C164.443 159.757 164.058 159.999 163.779 160.482C163.499 160.965 163.358 161.66 163.356 162.566C163.356 163.172 163.419 163.685 163.544 164.104C163.672 164.521 163.853 164.837 164.088 165.052C164.322 165.265 164.604 165.372 164.933 165.372ZM170.81 166.199H168.455V158.926H170.884C171.597 158.926 172.209 159.072 172.72 159.363C173.232 159.652 173.623 160.068 173.896 160.61C174.17 161.15 174.308 161.797 174.308 162.552C174.308 163.31 174.169 163.961 173.892 164.505C173.617 165.05 173.22 165.469 172.699 165.762C172.178 166.054 171.548 166.199 170.81 166.199ZM169.553 165.24H170.749C171.303 165.24 171.764 165.136 172.131 164.928C172.498 164.717 172.772 164.413 172.955 164.015C173.137 163.615 173.228 163.127 173.228 162.552C173.228 161.982 173.137 161.498 172.955 161.1C172.775 160.702 172.506 160.4 172.148 160.194C171.791 159.988 171.347 159.885 170.817 159.885H169.553V165.24ZM175.327 166.267C175.133 166.267 174.966 166.198 174.827 166.061C174.687 165.921 174.617 165.753 174.617 165.556C174.617 165.362 174.687 165.197 174.827 165.059C174.966 164.92 175.133 164.85 175.327 164.85C175.522 164.85 175.688 164.92 175.828 165.059C175.968 165.197 176.038 165.362 176.038 165.556C176.038 165.687 176.004 165.806 175.938 165.915C175.874 166.022 175.789 166.107 175.683 166.171C175.576 166.235 175.458 166.267 175.327 166.267ZM179.257 166.309C178.73 166.309 178.275 166.19 177.894 165.951C177.515 165.709 177.224 165.377 177.02 164.953C176.817 164.529 176.715 164.044 176.715 163.497C176.715 162.943 176.819 162.454 177.027 162.03C177.236 161.604 177.529 161.271 177.908 161.032C178.287 160.793 178.733 160.674 179.247 160.674C179.661 160.674 180.03 160.751 180.355 160.904C180.679 161.056 180.941 161.269 181.14 161.544C181.341 161.818 181.46 162.139 181.498 162.506H180.465C180.408 162.25 180.278 162.03 180.074 161.846C179.873 161.661 179.603 161.569 179.265 161.569C178.969 161.569 178.709 161.647 178.487 161.803C178.267 161.957 178.095 162.177 177.972 162.463C177.849 162.748 177.787 163.084 177.787 163.472C177.787 163.87 177.848 164.213 177.968 164.502C178.089 164.791 178.26 165.014 178.48 165.173C178.702 165.332 178.964 165.411 179.265 165.411C179.466 165.411 179.648 165.374 179.811 165.301C179.977 165.225 180.116 165.117 180.227 164.978C180.341 164.838 180.42 164.67 180.465 164.473H181.498C181.46 164.826 181.346 165.141 181.154 165.418C180.962 165.695 180.705 165.913 180.383 166.071C180.064 166.23 179.688 166.309 179.257 166.309ZM185.589 163.937V160.745H186.654V166.199H185.61V165.255H185.553C185.428 165.546 185.227 165.788 184.95 165.983C184.675 166.174 184.333 166.27 183.923 166.27C183.573 166.27 183.263 166.193 182.993 166.039C182.726 165.883 182.515 165.652 182.361 165.347C182.209 165.042 182.134 164.664 182.134 164.214V160.745H183.195V164.086C183.195 164.458 183.298 164.754 183.504 164.974C183.71 165.194 183.978 165.304 184.307 165.304C184.506 165.304 184.704 165.255 184.9 165.155C185.099 165.056 185.263 164.905 185.394 164.704C185.526 164.503 185.591 164.247 185.589 163.937ZM187.666 166.199V158.926H188.728V161.629H188.792C188.853 161.515 188.942 161.384 189.058 161.235C189.174 161.086 189.335 160.955 189.541 160.844C189.747 160.73 190.019 160.674 190.358 160.674C190.798 160.674 191.191 160.785 191.537 161.007C191.883 161.23 192.154 161.551 192.35 161.97C192.549 162.389 192.648 162.893 192.648 163.483C192.648 164.072 192.55 164.578 192.354 164.999C192.157 165.418 191.887 165.741 191.544 165.968C191.201 166.193 190.809 166.306 190.369 166.306C190.037 166.306 189.766 166.25 189.555 166.139C189.347 166.028 189.184 165.897 189.065 165.748C188.947 165.599 188.856 165.467 188.792 165.35H188.703V166.199H187.666ZM188.707 163.472C188.707 163.855 188.762 164.192 188.874 164.48C188.985 164.769 189.146 164.995 189.357 165.159C189.567 165.32 189.825 165.4 190.131 165.4C190.448 165.4 190.713 165.316 190.926 165.148C191.139 164.978 191.3 164.747 191.409 164.456C191.52 164.164 191.576 163.837 191.576 163.472C191.576 163.112 191.522 162.789 191.413 162.502C191.306 162.216 191.145 161.99 190.93 161.824C190.717 161.658 190.45 161.576 190.131 161.576C189.823 161.576 189.562 161.655 189.349 161.814C189.139 161.972 188.979 162.194 188.87 162.478C188.761 162.762 188.707 163.093 188.707 163.472ZM195.692 166.309C195.154 166.309 194.691 166.194 194.303 165.965C193.917 165.733 193.619 165.407 193.408 164.988C193.2 164.567 193.096 164.073 193.096 163.507C193.096 162.949 193.2 162.456 193.408 162.03C193.619 161.604 193.912 161.271 194.289 161.032C194.668 160.793 195.11 160.674 195.617 160.674C195.925 160.674 196.223 160.725 196.512 160.826C196.801 160.928 197.06 161.088 197.29 161.306C197.519 161.524 197.7 161.806 197.833 162.154C197.965 162.5 198.032 162.92 198.032 163.415V163.792H193.696V162.996H196.991C196.991 162.717 196.934 162.469 196.821 162.254C196.707 162.036 196.547 161.864 196.341 161.739C196.138 161.614 195.899 161.551 195.624 161.551C195.326 161.551 195.065 161.624 194.843 161.771C194.623 161.915 194.452 162.105 194.331 162.339C194.213 162.571 194.154 162.823 194.154 163.096V163.717C194.154 164.082 194.218 164.392 194.346 164.647C194.476 164.903 194.657 165.098 194.889 165.233C195.121 165.366 195.392 165.432 195.702 165.432C195.903 165.432 196.087 165.404 196.253 165.347C196.418 165.288 196.562 165.2 196.682 165.084C196.803 164.968 196.895 164.825 196.959 164.654L197.964 164.836C197.884 165.132 197.739 165.391 197.531 165.613C197.325 165.833 197.066 166.005 196.753 166.128C196.443 166.249 196.089 166.309 195.692 166.309Z" fill="black"/>
</g>
</g>
<defs>
<filter id="filter0_d_2303_2230" x="-0.000781059" y="-0.000781059" width="326.4" height="275.4" filterUnits="userSpaceOnUse" color-interpolation-filters="sRGB">
<feFlood flood-opacity="0" result="BackgroundImageFix"/>
<feColorMatrix in="SourceAlpha" type="matrix" values="0 0 0 0 0 0 0 0 0 0 0 0 0 0 0 0 0 0 127 0" result="hardAlpha"/>
<feOffset dy="9"/>
<feGaussianBlur stdDeviation="6.1"/>
<feComposite in2="hardAlpha" operator="out"/>
<feColorMatrix type="matrix" values="0 0 0 0 0 0 0 0 0 0 0 0 0 0 0 0 0 0 0.25 0"/>
<feBlend mode="normal" in2="BackgroundImageFix" result="effect1_dropShadow_2303_2230"/>
<feBlend mode="normal" in="SourceGraphic" in2="effect1_dropShadow_2303_2230" result="shape"/>
</filter>
<filter id="filter1_i_2303_2230" x="57.1992" y="133.199" width="211" height="19" filterUnits="userSpaceOnUse" color-interpolation-filters="sRGB">
<feFlood flood-opacity="0" result="BackgroundImageFix"/>
<feBlend mode="normal" in="SourceGraphic" in2="BackgroundImageFix" result="shape"/>
<feColorMatrix in="SourceAlpha" type="matrix" values="0 0 0 0 0 0 0 0 0 0 0 0 0 0 0 0 0 0 127 0" result="hardAlpha"/>
<feOffset/>
<feGaussianBlur stdDeviation="2"/>
<feComposite in2="hardAlpha" operator="arithmetic" k2="-1" k3="1"/>
<feColorMatrix type="matrix" values="0 0 0 0 0 0 0 0 0 0 0 0 0 0 0 0 0 0 0.25 0"/>
<feBlend mode="normal" in2="shape" result="effect1_innerShadow_2303_2230"/>
</filter>
<filter id="filter2_i_2303_2230" x="57.1992" y="152.199" width="211" height="20" filterUnits="userSpaceOnUse" color-interpolation-filters="sRGB">
<feFlood flood-opacity="0" result="BackgroundImageFix"/>
<feBlend mode="normal" in="SourceGraphic" in2="BackgroundImageFix" result="shape"/>
<feColorMatrix in="SourceAlpha" type="matrix" values="0 0 0 0 0 0 0 0 0 0 0 0 0 0 0 0 0 0 127 0" result="hardAlpha"/>
<feOffset/>
<feGaussianBlur stdDeviation="2"/>
<feComposite in2="hardAlpha" operator="arithmetic" k2="-1" k3="1"/>
<feColorMatrix type="matrix" values="0 0 0 0 0 0 0 0 0 0 0 0 0 0 0 0 0 0 0.25 0"/>
<feBlend mode="normal" in2="shape" result="effect1_innerShadow_2303_2230"/>
</filter>
<linearGradient id="paint0_linear_2303_2230" x1="163.199" y1="3.19922" x2="163.199" y2="254.199" gradientUnits="userSpaceOnUse">
<stop stop-color="#F2F2F2"/>
<stop offset="1" stop-color="#FAFAFA"/>
</linearGradient>
</defs>
</svg>
