<svg width="327" height="590" viewBox="0 0 327 590" fill="none" xmlns="http://www.w3.org/2000/svg">
<g filter="url(#filter0_d_2303_2172)">
<rect x="12.1992" y="3.19922" width="302" height="565" rx="18" fill="url(#paint0_linear_2303_2172)"/>
<path d="M117.899 42.5392C118.639 42.3792 119.559 42.4592 119.719 42.4592C120.419 42.5192 120.619 42.6392 120.819 43.1792C121.139 44.1192 122.199 47.7592 122.679 49.1592C122.939 49.9592 123.299 50.1592 123.699 48.6992C124.119 47.1392 124.499 45.3392 124.979 43.8592C125.319 42.7592 125.559 42.4792 126.439 42.4592C126.959 42.4592 126.919 42.3992 127.419 42.4592C127.979 42.5592 128.299 42.7392 128.499 43.3992C129.099 45.3392 129.699 47.2992 130.259 49.1992C130.419 49.7192 130.839 50.0792 131.079 49.2392C131.339 48.3392 131.419 48.1192 132.339 44.4792C132.679 43.1192 132.939 42.5592 133.579 42.5192C134.139 42.4792 134.119 42.5192 134.679 42.4992C134.939 42.4992 135.959 42.3992 136.019 43.3992C136.039 43.7392 135.899 44.0592 135.839 44.3992C134.839 48.7792 133.159 55.0192 132.319 56.7792C132.099 57.2192 131.579 57.2392 131.159 57.2392C129.559 57.2592 129.199 57.4392 128.799 56.7392C128.379 56.0792 128.279 55.1792 128.059 54.4392C127.819 53.4992 127.339 51.3992 127.079 50.8992C126.979 50.7192 126.719 50.7192 126.599 50.8792C126.419 51.1192 126.619 50.6592 125.139 55.8592C124.959 56.4192 124.779 57.1992 124.039 57.2392C123.359 57.2792 122.999 57.2592 122.339 57.2592C121.599 57.2592 121.339 56.9592 121.139 56.4992C121.059 56.3192 117.999 46.3592 117.339 43.6792C117.199 43.1592 117.339 42.6592 117.899 42.5392ZM138.582 56.6992C137.542 56.1392 135.902 54.9792 135.902 51.8992C135.762 50.6992 136.422 46.5392 141.242 46.0992C141.922 46.0392 146.682 46.0592 147.002 51.5392C147.282 56.1592 142.722 58.8992 138.582 56.6992ZM141.862 54.5392C143.302 54.2792 143.402 52.3592 143.402 51.8792C143.442 50.5192 142.822 49.2792 141.622 49.2192C139.782 49.1192 139.502 50.8992 139.462 51.9192C139.462 52.0992 139.402 53.9792 140.842 54.4992C141.182 54.6192 141.522 54.5992 141.862 54.5392ZM151.291 57.1392C151.251 57.1392 149.531 57.2392 148.971 57.0792C148.691 57.0192 148.511 56.7792 148.471 56.4792C148.471 56.4392 148.351 48.3592 148.411 47.5392C148.431 47.2592 148.471 46.9792 148.631 46.7392C148.931 46.2392 150.031 46.2792 151.031 46.3192C151.631 46.3392 151.791 47.2192 152.551 46.6392C153.951 45.5792 155.131 46.1192 155.331 46.2192C155.451 46.2992 155.571 46.4392 155.591 46.5792C155.711 47.1192 155.851 48.3392 155.511 49.0392C155.411 49.2992 155.171 49.3992 154.911 49.4392C154.291 49.5192 152.991 49.2792 152.211 50.7992C151.691 51.7992 151.951 52.5392 151.851 56.1592C151.831 56.6992 151.711 57.1192 151.291 57.1392ZM166.67 57.1992C166.57 57.2192 164.79 57.2392 164.51 57.2192C164.17 57.1992 163.85 57.1392 163.57 56.9592C163.37 56.8192 163.23 56.6192 163.11 56.4392C163.09 56.3992 161.59 54.1392 161.29 53.7792C160.71 53.0392 160.57 53.5992 160.55 53.6792C160.29 55.0992 160.63 56.3392 160.27 56.7992C160.15 56.9192 160.03 57.0192 159.87 57.0792C159.25 57.3392 157.61 57.3392 157.13 56.9392C156.99 56.8192 156.95 56.6792 156.91 56.5192C156.87 56.2992 156.85 56.0792 156.83 55.8592C156.79 54.9192 156.81 53.9592 156.81 52.9992C156.77 51.4192 156.73 43.8992 156.93 43.3592C157.01 43.0992 157.17 42.9192 157.39 42.7792C157.67 42.6192 159.51 42.5392 159.95 42.8192C160.17 42.9592 160.29 43.1792 160.33 43.4392C160.49 44.8392 160.33 47.8992 160.43 48.4592C160.51 48.8592 160.89 48.9592 161.17 48.6192C162.53 46.9592 162.81 46.5792 163.61 46.4992C163.77 46.4792 166.07 46.4192 166.39 46.6192C166.91 46.9592 166.49 47.5792 166.31 47.7592C165.57 48.5192 164.21 49.6392 163.81 50.2592C163.67 50.4792 163.67 50.6992 163.75 50.9192C163.99 51.6392 167.11 55.9192 167.19 56.4592C167.25 56.8192 167.13 57.1392 166.67 57.1992ZM174.854 43.2992C174.854 43.3192 175.014 44.1192 174.794 44.7992C174.454 45.8992 173.354 45.1592 173.014 45.7792C172.894 45.9992 172.974 46.2992 173.314 46.3592C173.554 46.3992 173.814 46.4192 174.054 46.4592C174.414 46.5192 174.754 46.7392 174.814 47.1592C174.854 47.4992 174.874 47.8592 174.814 48.1992C174.754 48.5792 174.474 48.8192 174.094 48.8792C173.574 48.9592 172.754 48.9392 172.734 49.4192C172.734 49.5792 172.774 56.2592 172.674 56.6592C172.594 56.9792 172.374 57.1792 172.034 57.2592C171.634 57.3392 171.234 57.3192 170.834 57.2992C170.514 57.2792 170.134 57.2992 169.834 57.1192C169.294 56.7992 169.434 56.0192 169.414 55.4992C169.414 54.5592 169.374 53.6192 169.374 52.6792C169.374 51.6592 169.374 50.6592 169.374 49.6392C169.374 49.4192 169.334 49.1792 169.154 49.0192C168.854 48.7792 168.434 48.8792 168.094 48.7392C167.214 48.3592 167.694 46.8192 167.894 46.6592C168.554 46.1392 169.334 46.6992 169.454 45.6792C169.494 45.3192 169.554 44.9992 169.694 44.6592C169.954 43.9992 170.434 43.4192 171.014 43.0392C171.634 42.6392 172.394 42.4392 173.134 42.4792C173.774 42.4992 174.634 42.5992 174.854 43.2992ZM175.872 55.6192C175.832 54.8392 175.912 51.8392 175.912 50.2992C175.892 48.8392 175.792 43.7992 176.112 43.1992C176.272 42.8992 176.512 42.7792 176.832 42.7592C178.772 42.6192 178.892 42.7992 178.992 42.8592C179.212 42.9792 179.292 43.1992 179.352 43.4392C179.612 44.5392 179.452 50.7192 179.452 50.8192C179.472 50.9392 179.512 55.3192 179.512 55.4392C179.552 56.6592 179.232 56.9592 178.872 57.1192C178.692 57.1992 176.752 57.3392 176.212 56.8792C175.972 56.6992 175.932 56.3192 175.872 55.6192ZM183.582 56.6992C182.542 56.1392 180.902 54.9792 180.902 51.8992C180.762 50.6992 181.422 46.5392 186.242 46.0992C186.922 46.0392 191.682 46.0592 192.002 51.5392C192.282 56.1592 187.722 58.8992 183.582 56.6992ZM186.862 54.5392C188.302 54.2792 188.402 52.3592 188.402 51.8792C188.442 50.5192 187.822 49.2792 186.622 49.2192C184.782 49.1192 184.502 50.8992 184.462 51.9192C184.462 52.0992 184.402 53.9792 185.842 54.4992C186.182 54.6192 186.522 54.5992 186.862 54.5392ZM204.795 57.0392C204.375 57.1792 202.915 57.2192 202.455 57.1392C202.075 57.0592 201.815 56.6792 201.595 55.9192C201.275 54.8392 200.755 52.7592 200.735 52.7192C200.715 52.6192 200.615 52.5392 200.535 52.5392C200.455 52.5392 200.355 52.6192 200.315 52.7392C199.495 55.8792 199.495 56.3592 198.975 56.8592C198.795 57.0392 198.575 57.1192 198.315 57.1592C198.075 57.1792 196.775 57.1392 196.755 57.1392C196.155 57.1192 195.655 57.0592 195.415 56.4192C194.195 52.9992 192.695 47.7792 192.595 47.2992C192.415 46.4392 193.255 46.3992 193.335 46.3992C193.355 46.3992 194.675 46.3192 195.375 46.4592C195.855 46.5592 196.115 46.9392 196.375 48.0592C196.815 49.8592 196.895 50.1192 197.155 51.0592C197.175 51.1792 197.255 51.2392 197.315 51.2992C197.395 51.3592 197.495 51.3192 197.555 51.2392C197.675 51.0392 197.475 51.4992 198.555 47.5592C198.815 46.5992 199.435 46.4992 199.455 46.4992C199.535 46.4792 200.175 46.2592 201.735 46.4792C202.035 46.5192 202.235 46.7392 202.355 46.9792C202.755 47.7992 203.095 49.6592 203.455 51.0192C203.475 51.1192 203.515 51.2192 203.635 51.2392C203.755 51.2592 203.835 51.1792 203.895 51.0992C204.175 50.7392 204.855 47.4192 205.155 46.8592C205.295 46.6192 205.515 46.4592 205.795 46.4192C206.075 46.3792 206.335 46.3792 206.615 46.3592C206.915 46.3392 207.215 46.3392 207.515 46.3592C207.715 46.3592 207.915 46.3792 208.095 46.4792C208.355 46.5992 208.455 46.7992 208.475 47.0792C208.555 48.1392 205.855 55.8992 205.855 55.9192C205.455 56.9992 204.835 57.0192 204.795 57.0392Z" fill="#515151"/>
<rect x="131.949" y="96.9492" width="64.5" height="64.5" rx="17.25" stroke="#363A3F" stroke-width="1.5"/>
<rect x="145.199" y="120.199" width="29" height="18" rx="4" fill="#363A3F"/>
<path d="M176.587 133.101L176.587 125.571L181.746 122.282C182.412 121.857 183.284 122.335 183.284 123.125L183.283 135.235C183.283 136.005 182.449 136.486 181.783 136.101L176.587 133.101Z" fill="#363A3F" stroke="#363A3F" stroke-width="1.5"/>
<rect x="131.949" y="435.949" width="64.5" height="64.5" rx="17.25" stroke="#363A3F" stroke-width="1.5"/>
<path d="M151.508 477.199C147.953 477.199 147.953 475.234 147.953 473.596H179.947C179.947 475.234 180.27 477.199 176.392 477.199H151.508Z" fill="#363A3F"/>
<path d="M180.947 471.931V473.341C180.947 473.639 180.968 474.18 180.933 474.645C180.896 475.145 180.789 475.771 180.437 476.368C179.656 477.689 178.125 478.199 176.068 478.199H151.832C149.869 478.199 148.419 477.658 147.614 476.419C146.912 475.34 146.954 474.022 146.954 473.341V471.931H180.947ZM149.923 474.751C149.944 474.801 149.965 474.846 149.992 474.886C150.052 474.979 150.333 475.378 151.832 475.378H176.068C177.783 475.378 177.987 474.95 177.995 474.938C178.017 474.9 178.041 474.842 178.062 474.751H149.923ZM174.652 460.49C174.652 460.231 174.44 460.02 174.18 460.02H153.721C153.46 460.02 153.249 460.231 153.249 460.49V470.834H150.416V460.49C150.416 458.673 151.896 457.199 153.721 457.199H174.18C176.005 457.199 177.485 458.673 177.485 460.49V470.834H174.652V460.49Z" fill="#363A3F"/>
<path d="M138.959 521.089C138.949 521.349 138.949 521.649 138.399 521.679C138.389 521.679 136.389 521.659 136.379 521.659C136.189 521.649 135.649 521.619 135.649 521.919C135.579 522.189 135.619 522.449 135.629 522.539C135.639 522.599 135.679 522.639 135.729 522.669C135.869 522.749 135.909 522.719 136.909 522.719C138.049 522.719 138.529 522.629 138.539 522.989C138.559 523.349 138.579 523.699 138.549 524.059C138.539 524.179 138.429 524.269 138.299 524.299C137.929 524.359 137.549 524.339 137.169 524.339C136.919 524.339 136.669 524.339 136.419 524.349C136.199 524.349 135.939 524.309 135.729 524.389C135.649 524.419 135.619 524.489 135.619 524.569C135.569 525.219 135.589 525.889 135.579 526.539C135.579 526.729 135.609 526.919 135.479 527.079C135.349 527.239 135.099 527.229 134.909 527.239C134.599 527.269 134.109 527.269 133.889 527.149C133.639 527.019 133.709 526.769 133.689 522.569C133.669 520.649 133.619 520.539 133.739 520.209C133.849 519.869 134.369 519.939 134.629 519.939C135.839 519.939 137.059 519.929 138.269 519.929C138.469 519.929 138.709 519.889 138.859 520.059C138.969 520.169 138.979 520.329 138.959 521.089ZM140.427 527.139C140.167 527.179 139.237 527.259 139.107 526.929C138.987 526.639 139.067 525.079 139.067 524.959C139.047 523.539 139.027 523.329 139.027 522.409C139.027 522.209 139.087 521.879 139.387 521.849C139.617 521.829 140.257 521.839 140.267 521.839C140.557 521.849 140.647 521.949 140.697 522.089C140.747 522.229 140.747 522.379 140.747 522.529C140.757 523.439 140.837 526.489 140.727 526.879C140.677 527.039 140.607 527.109 140.427 527.139ZM140.397 521.439C140.387 521.439 139.657 521.539 139.387 521.459C139.207 521.399 139.097 521.329 139.067 521.109C138.947 520.439 139.117 520.219 139.147 520.159C139.207 520.079 139.287 520.029 139.387 520.009C139.687 519.969 140.217 519.979 140.427 520.009C140.557 520.019 140.697 520.129 140.717 520.289C140.747 520.639 140.757 520.969 140.697 521.179C140.647 521.329 140.557 521.429 140.397 521.439ZM146.275 522.999C146.305 523.139 146.415 523.349 146.365 526.559C146.355 527.119 146.115 527.169 146.005 527.179C145.575 527.229 144.935 527.189 144.815 527.149C144.715 527.109 144.655 527.039 144.615 526.949C144.475 526.559 144.595 526.479 144.535 524.139C144.515 523.289 143.915 522.949 143.415 523.289C143.195 523.439 143.085 523.649 143.035 523.899C142.985 524.189 143.015 526.589 143.015 526.609C143.005 527.119 142.855 527.189 142.495 527.199C142.275 527.209 141.645 527.199 141.645 527.199C141.455 527.189 141.215 527.159 141.195 526.589C141.185 526.389 141.165 526.199 141.165 525.999C141.125 524.839 141.175 522.659 141.185 522.639C141.185 522.449 141.215 522.259 141.275 522.079C141.325 521.919 141.555 521.769 141.695 521.759C141.705 521.759 142.375 521.699 142.675 521.859C143.115 522.079 142.985 521.949 143.605 521.749C143.755 521.689 143.915 521.649 144.075 521.629C144.295 521.609 145.505 521.599 146.045 522.429C146.155 522.599 146.245 522.789 146.275 522.999ZM147.769 527.229C146.329 526.759 146.409 525.379 146.729 524.819C147.129 524.099 147.939 523.979 148.679 523.859C148.939 523.819 149.229 523.809 149.469 523.699C149.819 523.539 149.799 523.189 149.579 523.009C149.269 522.769 148.799 522.909 148.549 523.159C148.369 523.349 148.399 523.549 148.069 523.619C148.019 523.629 147.089 523.689 146.929 523.609C146.809 523.549 146.749 523.439 146.729 523.309C146.689 523.069 146.779 522.849 146.899 522.649C147.429 521.769 148.599 521.459 149.559 521.539C150.179 521.589 150.529 521.789 150.629 521.849C151.079 522.089 151.379 522.499 151.479 522.999C151.629 523.769 151.489 525.619 151.629 526.499C151.649 526.609 151.669 526.719 151.659 526.839C151.649 526.989 151.519 527.149 151.359 527.179C151.299 527.199 150.459 527.309 150.179 527.159C150.139 527.139 150.109 527.099 150.069 527.069C149.979 527.009 149.889 526.999 149.799 527.029C149.119 527.239 148.469 527.449 147.769 527.229ZM148.419 525.929C148.639 526.019 149.139 526.099 149.409 525.789C149.709 525.459 149.759 524.999 149.379 525.009C148.849 525.029 148.559 525.199 148.399 525.329C148.149 525.529 148.249 525.849 148.419 525.929ZM151.952 526.409C151.932 526.019 151.972 524.519 151.972 523.749C151.962 523.019 151.912 520.499 152.072 520.199C152.152 520.049 152.272 519.989 152.432 519.979C153.402 519.909 153.462 519.999 153.512 520.029C153.622 520.089 153.662 520.199 153.692 520.319C153.822 520.869 153.742 523.959 153.742 524.009C153.752 524.069 153.772 526.259 153.772 526.319C153.792 526.929 153.632 527.079 153.452 527.159C153.362 527.199 152.392 527.269 152.122 527.039C152.002 526.949 151.982 526.759 151.952 526.409ZM162.437 526.809C162.497 527.329 162.067 527.259 161.847 527.269C161.597 527.269 161.357 527.279 161.117 527.269C160.977 527.269 160.717 527.309 160.567 526.989C160.297 526.439 160.537 526.059 160.157 524.999C160.057 524.739 159.937 524.599 159.647 524.529C159.487 524.499 158.877 524.459 158.467 524.509C158.317 524.529 158.167 524.689 158.147 524.839C158.077 525.459 158.117 526.109 158.127 526.739C158.127 527.249 157.807 527.249 157.757 527.249C157.377 527.269 157.067 527.259 156.687 527.259C156.127 527.259 156.227 526.679 156.227 526.289C156.227 525.939 156.217 525.589 156.217 525.239C156.217 523.679 156.217 522.119 156.217 520.549C156.197 519.789 156.937 519.899 157.387 519.899C160.257 519.899 160.967 519.979 161.487 520.329C162.437 520.959 162.627 522.489 161.887 523.359C161.877 523.369 161.587 523.609 161.807 523.939C162.107 524.359 162.227 524.849 162.257 525.349C162.277 525.599 162.287 525.849 162.307 526.099C162.337 526.339 162.407 526.569 162.437 526.809ZM158.357 523.109C158.687 523.149 158.937 523.149 159.277 523.139C159.297 523.129 159.347 523.129 159.367 523.129C159.667 523.119 159.957 523.109 160.177 522.869C160.347 522.679 160.417 522.409 160.377 522.159C160.337 521.949 160.227 521.709 160.037 521.599C159.777 521.459 159.437 521.449 159.147 521.449C158.887 521.459 158.617 521.419 158.367 521.509C158.257 521.549 158.157 521.669 158.157 521.779C158.147 522.139 158.137 522.509 158.147 522.869C158.147 522.979 158.237 523.089 158.357 523.109ZM167.948 524.099C167.968 524.279 167.978 524.459 167.968 524.639C167.958 524.919 167.828 525.039 167.558 525.089C167.388 525.119 167.208 525.119 167.038 525.129C166.668 525.129 166.308 525.139 165.938 525.139C165.678 525.149 165.418 525.149 165.158 525.149C164.688 525.159 164.568 525.139 164.478 525.229C164.438 525.269 164.458 525.369 164.498 525.449C164.558 525.589 164.728 525.719 164.868 525.779C165.088 525.889 165.308 525.919 165.548 525.889C165.688 525.879 165.808 525.829 165.918 525.759C165.958 525.739 165.988 525.699 166.018 525.669C166.088 525.599 166.128 525.519 166.188 525.439C166.248 525.359 166.318 525.279 166.428 525.269C166.528 525.259 167.518 525.259 167.708 525.379C167.808 525.439 167.848 525.529 167.818 525.639C167.658 526.259 167.168 526.739 166.608 527.009C165.728 527.439 164.628 527.439 163.788 526.929C163.208 526.569 162.768 525.989 162.568 525.339C162.388 524.719 162.438 524.049 162.688 523.459C162.778 523.249 162.848 523.049 162.978 522.859C163.108 522.669 163.268 522.499 163.438 522.349C163.768 522.049 164.178 521.839 164.618 521.739C165.458 521.539 166.388 521.779 167.038 522.349C167.548 522.799 167.858 523.429 167.948 524.099ZM166.018 523.809C166.108 523.659 165.958 523.489 165.848 523.399C165.728 523.299 165.548 523.249 165.388 523.219C165.078 523.169 164.648 523.269 164.498 523.579C164.448 523.669 164.428 523.849 164.578 523.859C164.838 523.899 165.118 523.869 165.378 523.869C165.508 523.869 165.638 523.869 165.768 523.869C165.858 523.869 165.968 523.899 166.018 523.809ZM173.015 523.739C172.865 524.099 171.935 523.969 171.785 523.929C171.465 523.859 171.425 523.539 171.175 523.349C171.035 523.239 170.865 523.169 170.695 523.149C169.955 523.079 169.475 523.839 169.655 524.839C169.775 525.519 170.295 525.899 170.785 525.859C171.315 525.809 171.475 525.329 171.515 525.199C171.585 525.039 171.695 524.949 171.875 524.909C172.165 524.849 172.805 525.059 172.855 525.079C173.005 525.139 173.075 525.239 173.085 525.399C173.105 526.029 172.355 526.949 171.375 527.219C170.595 527.439 169.725 527.269 169.075 526.789C168.425 526.309 168.005 525.539 167.935 524.739C167.845 523.739 168.275 522.679 169.095 522.109C169.245 521.999 169.405 521.909 169.575 521.839C171.035 521.209 172.575 522.049 172.945 523.049C173.015 523.239 173.095 523.539 173.015 523.739ZM174.47 527.159C174.35 527.169 173.86 527.189 173.66 527.169C173.58 527.159 173.14 527.189 173.1 526.719C173.08 526.449 173.08 526.179 173.09 525.909C173.1 525.419 173.43 525.389 173.73 525.379C173.88 525.369 174.04 525.369 174.19 525.379C174.43 525.389 174.83 525.339 174.87 525.869C174.89 526.109 174.89 526.709 174.85 526.839C174.81 526.989 174.66 527.149 174.47 527.159ZM181.915 520.419C181.915 521.029 181.915 520.999 181.915 521.099C181.905 521.709 181.515 521.859 181.165 522.329C179.735 524.249 179.785 525.989 179.745 526.499C179.705 526.989 179.595 527.179 179.275 527.249C179.235 527.259 179.105 527.299 178.445 527.279C178.385 527.279 177.905 527.309 177.815 526.859C177.685 526.139 178.285 523.929 179.485 522.239C179.555 522.149 179.635 522.059 179.685 521.959C179.755 521.819 179.655 521.659 179.495 521.649C179.015 521.629 177.305 521.659 177.295 521.659C177.055 521.649 176.885 521.649 176.825 521.439C176.795 521.329 176.785 521.289 176.795 520.359C176.795 519.949 177.095 519.969 177.225 519.969C177.635 519.939 180.985 519.969 181.005 519.969C181.105 519.979 181.915 519.919 181.915 520.419ZM186.93 522.319C187.17 524.239 186.84 525.469 186.69 525.769C186.58 525.999 186.05 527.279 184.33 527.299C181.67 527.329 181.73 524.039 181.73 523.889C181.66 522.589 181.85 520.279 183.78 519.929C184.14 519.859 184.32 519.859 184.46 519.859C185.2 519.859 186.69 520.319 186.93 522.319ZM183.8 521.639C183.33 522.109 183.43 522.899 183.43 524.169C183.4 525.409 184.02 525.639 184.05 525.659C184.19 525.739 184.34 525.769 184.49 525.739C184.51 525.739 185.53 525.619 185.32 523.349C185.29 523.089 185.38 522.099 184.88 521.599C184.63 521.349 184.34 521.319 184.12 521.409C184 521.459 183.89 521.549 183.8 521.639ZM192.554 522.099C192.694 522.739 192.764 524.319 192.504 525.189C191.784 527.669 189.374 527.669 188.334 526.949C187.754 526.539 187.434 525.849 187.384 525.489C187.364 525.339 187.344 525.139 187.644 525.059C187.794 525.019 188.144 524.999 188.254 524.999C188.914 524.999 188.944 525.149 189.054 525.309C189.174 525.459 189.274 525.629 189.414 525.759C189.534 525.869 189.674 525.939 189.844 525.929C190.124 525.929 190.454 525.739 190.624 525.429C190.684 525.329 190.714 525.229 190.724 525.119C190.754 524.849 190.464 524.929 190.454 524.929C190.054 524.999 189.514 525.159 188.834 524.879C186.854 524.079 187.274 522.049 187.414 521.679C188.204 519.639 190.044 519.799 190.074 519.799C191.834 519.909 192.394 521.409 192.554 522.099ZM190.044 523.609C190.694 523.559 190.914 522.809 190.834 522.319C190.724 521.629 190.374 521.449 189.884 521.459C189.814 521.459 189.094 521.509 189.104 522.539C189.104 523.069 189.404 523.649 190.044 523.609Z" fill="#363A3F"/>
<path d="M164.199 162.199L164.199 435.199" stroke="#363A3F" stroke-width="1.5"/>
<rect x="130.949" y="210.949" width="64.5" height="64.5" rx="17.25" fill="#F6F6F6"/>
<rect x="130.949" y="210.949" width="64.5" height="64.5" rx="17.25" stroke="#363A3F" stroke-width="1.5"/>
<rect x="149.199" y="229.199" width="29" height="29" rx="14.5" fill="#363A3F"/>
<path d="M163.199 257.199H179.199" stroke="#363A3F" stroke-width="1.5"/>
<rect x="157.199" y="238.199" width="5" height="5" rx="2.5" fill="#F7F7F7"/>
<rect x="165.199" y="238.199" width="5" height="5" rx="2.5" fill="#F7F7F7"/>
<rect x="157.199" y="245.199" width="5" height="5" rx="2.5" fill="#F7F7F7"/>
<rect x="165.199" y="245.199" width="5" height="5" rx="2.5" fill="#F7F7F7"/>
<rect x="130.949" y="323.949" width="64.5" height="64.5" rx="17.25" fill="#F7F7F7"/>
<rect x="130.949" y="323.949" width="64.5" height="64.5" rx="17.25" stroke="#363A3F" stroke-width="1.5"/>
<circle cx="169.199" cy="360.199" r="8" fill="#D9D9D9"/>
<circle cx="157.199" cy="360.199" r="8" fill="#363A3F" style="mix-blend-mode:plus-darker"/>
<circle cx="163.199" cy="350.199" r="8" fill="white" style="mix-blend-mode:soft-light"/>
<rect width="109" height="28" transform="translate(109.199 285.199)" fill="#F7F7F7"/>
<path d="M121.589 299.439C121.589 299.459 121.579 300.049 121.599 300.299C121.619 300.529 121.759 300.619 122.309 300.619C122.649 300.619 123.499 300.629 124.089 300.629C124.779 300.629 124.919 300.529 124.849 301.659C124.809 302.289 124.699 302.239 123.499 302.229C123.039 302.229 124.689 302.239 121.209 302.229C120.839 302.229 120.429 302.279 120.069 302.199C119.659 302.099 119.709 301.669 119.709 301.259C119.699 300.849 119.669 295.909 119.669 295.689C119.659 295.249 119.619 294.859 120.279 294.859C120.609 294.859 121.009 294.799 121.319 294.909C121.639 295.019 121.559 295.439 121.569 295.709C121.579 296.819 121.579 297.279 121.589 299.439ZM125.963 301.949C125.443 301.669 124.623 301.089 124.623 299.549C124.553 298.949 124.883 296.869 127.293 296.649C127.633 296.619 130.013 296.629 130.173 299.369C130.313 301.679 128.033 303.049 125.963 301.949ZM127.603 300.869C128.323 300.739 128.373 299.779 128.373 299.539C128.393 298.859 128.083 298.239 127.483 298.209C126.563 298.159 126.423 299.049 126.403 299.559C126.403 299.649 126.373 300.589 127.093 300.849C127.263 300.909 127.433 300.899 127.603 300.869ZM135.538 297.029C135.538 297.049 135.678 301.689 135.388 302.599C135.248 303.039 134.987 303.369 134.598 303.619C133.948 304.039 133.158 304.109 132.398 304.069C131.988 304.039 131.578 303.959 131.218 303.769C130.808 303.549 130.508 303.219 130.368 302.779C130.308 302.609 130.398 302.379 130.548 302.299C130.788 302.159 131.688 302.049 131.968 302.169C132.108 302.229 132.138 302.429 132.228 302.529C132.488 302.829 133.458 302.899 133.758 302.159C133.798 302.069 133.818 301.959 133.778 301.879C133.658 301.609 133.168 301.959 132.998 302.009C132.778 302.069 132.548 302.099 132.318 302.089C131.868 302.069 131.428 301.909 131.078 301.619C130.597 301.219 130.328 300.609 130.218 299.999C130.118 299.369 130.178 298.699 130.438 298.119C130.898 297.099 132.048 296.169 133.718 296.889C133.868 296.959 134.008 296.949 134.138 296.849C134.238 296.769 134.348 296.739 134.478 296.739C135.158 296.749 135.447 296.669 135.538 297.029ZM133.468 300.419C133.868 300.099 134.038 299.079 133.558 298.369C133.428 298.179 132.998 297.919 132.528 298.109C131.888 298.369 131.798 299.149 131.928 299.739C131.978 299.979 132.088 300.209 132.268 300.379C132.598 300.669 133.188 300.639 133.468 300.419ZM138.671 301.529C138.351 300.939 138.631 298.699 138.461 298.379C138.391 298.249 138.271 298.249 137.971 298.159C137.471 298.009 137.621 297.179 137.651 297.129C137.791 296.809 138.061 296.829 138.331 296.749C138.431 296.719 138.471 296.649 138.481 296.539C138.511 296.259 138.501 295.989 138.501 295.719C138.511 295.369 138.661 295.079 138.941 295.029C139.121 294.999 139.641 294.999 139.771 295.039C140.181 295.169 140.201 295.439 140.211 295.709C140.241 295.989 140.221 296.279 140.231 296.569C140.231 296.629 140.281 296.679 140.341 296.699C140.481 296.749 140.841 296.749 141.091 296.939C141.301 297.079 141.231 297.739 141.191 297.829C140.941 298.319 140.291 297.999 140.251 298.369C140.251 298.409 140.241 300.209 140.241 300.279C140.251 300.409 140.231 300.599 140.581 300.759C140.921 300.919 141.321 300.959 141.291 301.379C141.281 301.559 141.181 302.059 140.861 302.189C140.841 302.189 140.431 302.409 139.341 302.109C139.281 302.089 138.911 301.959 138.671 301.529ZM142.478 301.949C141.958 301.669 141.138 301.089 141.138 299.549C141.068 298.949 141.398 296.869 143.808 296.649C144.148 296.619 146.528 296.629 146.688 299.369C146.828 301.679 144.548 303.049 142.478 301.949ZM144.118 300.869C144.838 300.739 144.888 299.779 144.888 299.539C144.908 298.859 144.598 298.239 143.998 298.209C143.078 298.159 142.938 299.049 142.918 299.559C142.918 299.649 142.888 300.589 143.608 300.849C143.778 300.909 143.948 300.899 144.118 300.869ZM150.773 298.829C150.723 299.289 150.763 299.399 150.713 301.209C150.693 302.199 150.603 302.259 149.973 302.249C149.103 302.249 148.953 302.159 148.943 301.419C148.933 299.909 148.933 295.589 148.953 295.369C148.993 294.959 149.143 294.809 149.613 294.789C149.973 294.759 150.413 294.799 150.593 294.919C150.903 295.129 151.143 295.469 151.853 296.619C152.383 297.479 152.793 298.209 153.063 298.499C153.163 298.599 153.283 298.639 153.333 298.499C153.363 298.439 153.363 298.289 153.363 298.219C153.403 296.179 153.403 295.579 153.433 295.259C153.473 294.939 153.623 294.789 154.293 294.789C154.813 294.789 155.213 294.759 155.223 295.359C155.233 296.439 155.233 301.489 155.163 301.829C155.073 302.269 154.603 302.249 154.593 302.249C154.393 302.269 154.193 302.269 153.993 302.259C153.373 302.229 153.403 302.259 152.903 301.519C151.473 299.399 151.483 299.409 151.053 298.829C150.903 298.609 150.783 298.759 150.773 298.829ZM160.909 299.099C160.929 299.279 160.939 299.459 160.929 299.639C160.919 299.919 160.789 300.039 160.519 300.089C160.349 300.119 160.169 300.119 159.999 300.129C159.629 300.129 159.269 300.139 158.899 300.139C158.639 300.149 158.379 300.149 158.119 300.149C157.649 300.159 157.529 300.139 157.439 300.229C157.399 300.269 157.419 300.369 157.459 300.449C157.519 300.589 157.689 300.719 157.829 300.779C158.049 300.889 158.269 300.919 158.509 300.889C158.649 300.879 158.769 300.829 158.879 300.759C158.919 300.739 158.949 300.699 158.979 300.669C159.049 300.599 159.089 300.519 159.149 300.439C159.209 300.359 159.279 300.279 159.389 300.269C159.489 300.259 160.479 300.259 160.669 300.379C160.769 300.439 160.809 300.529 160.779 300.639C160.619 301.259 160.129 301.739 159.569 302.009C158.689 302.439 157.589 302.439 156.749 301.929C156.169 301.569 155.729 300.989 155.529 300.339C155.349 299.719 155.399 299.049 155.649 298.459C155.739 298.249 155.809 298.049 155.939 297.859C156.069 297.669 156.229 297.499 156.399 297.349C156.729 297.049 157.139 296.839 157.579 296.739C158.419 296.539 159.349 296.779 159.999 297.349C160.509 297.799 160.819 298.429 160.909 299.099ZM158.979 298.809C159.069 298.659 158.919 298.489 158.809 298.399C158.689 298.299 158.509 298.249 158.349 298.219C158.039 298.169 157.609 298.269 157.459 298.579C157.409 298.669 157.389 298.849 157.539 298.859C157.799 298.899 158.079 298.869 158.339 298.869C158.469 298.869 158.599 298.869 158.729 298.869C158.819 298.869 158.929 298.899 158.979 298.809ZM166.266 297.029C166.266 297.049 166.406 301.689 166.116 302.599C165.976 303.039 165.716 303.369 165.326 303.619C164.676 304.039 163.886 304.109 163.126 304.069C162.716 304.039 162.306 303.959 161.946 303.769C161.536 303.549 161.236 303.219 161.096 302.779C161.036 302.609 161.126 302.379 161.276 302.299C161.516 302.159 162.416 302.049 162.696 302.169C162.836 302.229 162.866 302.429 162.956 302.529C163.216 302.829 164.186 302.899 164.486 302.159C164.526 302.069 164.546 301.959 164.506 301.879C164.386 301.609 163.896 301.959 163.726 302.009C163.506 302.069 163.276 302.099 163.046 302.089C162.596 302.069 162.156 301.909 161.806 301.619C161.326 301.219 161.056 300.609 160.946 299.999C160.846 299.369 160.906 298.699 161.166 298.119C161.626 297.099 162.776 296.169 164.446 296.889C164.596 296.959 164.736 296.949 164.866 296.849C164.966 296.769 165.076 296.739 165.206 296.739C165.886 296.749 166.176 296.669 166.266 297.029ZM164.196 300.419C164.596 300.099 164.766 299.079 164.286 298.369C164.156 298.179 163.726 297.919 163.256 298.109C162.616 298.369 162.526 299.149 162.656 299.739C162.706 299.979 162.816 300.209 162.996 300.379C163.326 300.669 163.916 300.639 164.196 300.419ZM167.74 302.229C166.3 301.759 166.38 300.379 166.7 299.819C167.1 299.099 167.91 298.979 168.65 298.859C168.91 298.819 169.2 298.809 169.44 298.699C169.79 298.539 169.77 298.189 169.55 298.009C169.24 297.769 168.77 297.909 168.52 298.159C168.34 298.349 168.37 298.549 168.04 298.619C167.99 298.629 167.06 298.689 166.9 298.609C166.78 298.549 166.72 298.439 166.7 298.309C166.66 298.069 166.75 297.849 166.87 297.649C167.4 296.769 168.57 296.459 169.53 296.539C170.15 296.589 170.5 296.789 170.6 296.849C171.05 297.089 171.35 297.499 171.45 297.999C171.6 298.769 171.46 300.619 171.6 301.499C171.62 301.609 171.64 301.719 171.63 301.839C171.62 301.989 171.49 302.149 171.33 302.179C171.27 302.199 170.43 302.309 170.15 302.159C170.11 302.139 170.08 302.099 170.04 302.069C169.95 302.009 169.86 301.999 169.77 302.029C169.09 302.239 168.44 302.449 167.74 302.229ZM168.39 300.929C168.61 301.019 169.11 301.099 169.38 300.789C169.68 300.459 169.73 299.999 169.35 300.009C168.82 300.029 168.53 300.199 168.37 300.329C168.12 300.529 168.22 300.849 168.39 300.929ZM172.632 301.529C172.312 300.939 172.592 298.699 172.422 298.379C172.352 298.249 172.232 298.249 171.932 298.159C171.432 298.009 171.582 297.179 171.612 297.129C171.752 296.809 172.022 296.829 172.292 296.749C172.392 296.719 172.432 296.649 172.442 296.539C172.472 296.259 172.462 295.989 172.462 295.719C172.472 295.369 172.622 295.079 172.902 295.029C173.082 294.999 173.602 294.999 173.732 295.039C174.142 295.169 174.162 295.439 174.172 295.709C174.202 295.989 174.182 296.279 174.192 296.569C174.192 296.629 174.242 296.679 174.302 296.699C174.442 296.749 174.802 296.749 175.052 296.939C175.262 297.079 175.192 297.739 175.152 297.829C174.902 298.319 174.252 297.999 174.212 298.369C174.212 298.409 174.202 300.209 174.202 300.279C174.212 300.409 174.192 300.599 174.542 300.759C174.882 300.919 175.282 300.959 175.252 301.379C175.242 301.559 175.142 302.059 174.822 302.189C174.802 302.189 174.392 302.409 173.302 302.109C173.242 302.089 172.872 301.959 172.632 301.529ZM176.787 302.139C176.527 302.179 175.597 302.259 175.467 301.929C175.347 301.639 175.427 300.079 175.427 299.959C175.407 298.539 175.387 298.329 175.387 297.409C175.387 297.209 175.447 296.879 175.747 296.849C175.977 296.829 176.617 296.839 176.627 296.839C176.917 296.849 177.007 296.949 177.057 297.089C177.107 297.229 177.107 297.379 177.107 297.529C177.117 298.439 177.197 301.489 177.087 301.879C177.037 302.039 176.967 302.109 176.787 302.139ZM176.757 296.439C176.747 296.439 176.017 296.539 175.747 296.459C175.567 296.399 175.457 296.329 175.427 296.109C175.307 295.439 175.477 295.219 175.507 295.159C175.567 295.079 175.647 295.029 175.747 295.009C176.047 294.969 176.577 294.979 176.787 295.009C176.917 295.019 177.057 295.129 177.077 295.289C177.107 295.639 177.117 295.969 177.057 296.179C177.007 296.329 176.917 296.429 176.757 296.439ZM177.384 296.829C177.424 296.819 177.614 296.739 178.324 296.779C178.844 296.799 178.914 297.209 178.934 297.279C179.074 297.679 179.174 298.089 179.304 298.499C179.394 298.759 179.454 299.029 179.554 299.289C179.574 299.329 179.584 299.379 179.624 299.409C179.684 299.449 179.774 299.399 179.804 299.319C179.954 298.859 179.924 298.859 180.414 297.379C180.534 297.029 180.604 296.839 180.914 296.789C181.144 296.749 181.734 296.789 181.874 296.809C182.164 296.859 182.224 297.139 182.134 297.449C182.134 297.469 181.004 301.019 180.664 301.779C180.444 302.279 180.084 302.199 179.494 302.189C179.244 302.189 178.834 302.119 178.714 301.799C178.694 301.759 177.694 298.949 177.224 297.459C177.204 297.369 177.074 296.939 177.384 296.829ZM187.411 299.099C187.431 299.279 187.441 299.459 187.431 299.639C187.421 299.919 187.291 300.039 187.021 300.089C186.851 300.119 186.671 300.119 186.501 300.129C186.131 300.129 185.771 300.139 185.401 300.139C185.141 300.149 184.881 300.149 184.621 300.149C184.151 300.159 184.031 300.139 183.941 300.229C183.901 300.269 183.921 300.369 183.961 300.449C184.021 300.589 184.191 300.719 184.331 300.779C184.551 300.889 184.771 300.919 185.011 300.889C185.151 300.879 185.271 300.829 185.381 300.759C185.421 300.739 185.451 300.699 185.481 300.669C185.551 300.599 185.591 300.519 185.651 300.439C185.711 300.359 185.781 300.279 185.891 300.269C185.991 300.259 186.981 300.259 187.171 300.379C187.271 300.439 187.311 300.529 187.281 300.639C187.121 301.259 186.631 301.739 186.071 302.009C185.191 302.439 184.091 302.439 183.251 301.929C182.671 301.569 182.231 300.989 182.031 300.339C181.851 299.719 181.901 299.049 182.151 298.459C182.241 298.249 182.311 298.049 182.441 297.859C182.571 297.669 182.731 297.499 182.901 297.349C183.231 297.049 183.641 296.839 184.081 296.739C184.921 296.539 185.851 296.779 186.501 297.349C187.011 297.799 187.321 298.429 187.411 299.099ZM185.481 298.809C185.571 298.659 185.421 298.489 185.311 298.399C185.191 298.299 185.011 298.249 184.851 298.219C184.541 298.169 184.111 298.269 183.961 298.579C183.911 298.669 183.891 298.849 184.041 298.859C184.301 298.899 184.581 298.869 184.841 298.869C184.971 298.869 185.101 298.869 185.231 298.869C185.321 298.869 185.431 298.899 185.481 298.809ZM194.928 296.089C194.918 296.349 194.918 296.649 194.368 296.679C194.358 296.679 192.358 296.659 192.348 296.659C192.158 296.649 191.618 296.619 191.618 296.919C191.548 297.189 191.588 297.449 191.598 297.539C191.608 297.599 191.648 297.639 191.698 297.669C191.838 297.749 191.878 297.719 192.878 297.719C194.018 297.719 194.498 297.629 194.508 297.989C194.528 298.349 194.548 298.699 194.518 299.059C194.508 299.179 194.398 299.269 194.268 299.299C193.898 299.359 193.518 299.339 193.138 299.339C192.888 299.339 192.638 299.339 192.388 299.349C192.168 299.349 191.908 299.309 191.698 299.389C191.618 299.419 191.588 299.489 191.588 299.569C191.538 300.219 191.558 300.889 191.548 301.539C191.548 301.729 191.578 301.919 191.448 302.079C191.318 302.239 191.068 302.229 190.878 302.239C190.568 302.269 190.078 302.269 189.858 302.149C189.608 302.019 189.678 301.769 189.658 297.569C189.638 295.649 189.588 295.539 189.708 295.209C189.818 294.869 190.338 294.939 190.598 294.939C191.808 294.939 193.028 294.929 194.238 294.929C194.438 294.929 194.678 294.889 194.828 295.059C194.938 295.169 194.948 295.329 194.928 296.089ZM196.396 302.139C196.136 302.179 195.206 302.259 195.076 301.929C194.956 301.639 195.036 300.079 195.036 299.959C195.016 298.539 194.996 298.329 194.996 297.409C194.996 297.209 195.056 296.879 195.356 296.849C195.586 296.829 196.226 296.839 196.236 296.839C196.526 296.849 196.616 296.949 196.666 297.089C196.716 297.229 196.716 297.379 196.716 297.529C196.726 298.439 196.806 301.489 196.696 301.879C196.646 302.039 196.576 302.109 196.396 302.139ZM196.366 296.439C196.356 296.439 195.626 296.539 195.356 296.459C195.176 296.399 195.066 296.329 195.036 296.109C194.916 295.439 195.086 295.219 195.116 295.159C195.176 295.079 195.256 295.029 195.356 295.009C195.656 294.969 196.186 294.979 196.396 295.009C196.526 295.019 196.666 295.129 196.686 295.289C196.716 295.639 196.726 295.969 196.666 296.179C196.616 296.329 196.526 296.429 196.366 296.439ZM197.133 301.409C197.113 301.019 197.153 299.519 197.153 298.749C197.143 298.019 197.093 295.499 197.253 295.199C197.333 295.049 197.453 294.989 197.613 294.979C198.583 294.909 198.643 294.999 198.693 295.029C198.803 295.089 198.843 295.199 198.873 295.319C199.003 295.869 198.923 298.959 198.923 299.009C198.933 299.069 198.953 301.259 198.953 301.319C198.973 301.929 198.813 302.079 198.633 302.159C198.543 302.199 197.573 302.269 197.303 302.039C197.183 301.949 197.163 301.759 197.133 301.409ZM205.928 302.139C205.558 302.059 205.638 301.499 205.638 300.469C205.638 299.159 205.708 298.379 205.238 298.289C204.988 298.229 204.748 298.289 204.648 298.349C204.328 298.549 204.208 298.849 204.258 300.119C204.258 300.129 204.268 301.539 204.188 301.839C204.148 301.999 204.048 302.109 203.868 302.149C203.798 302.159 203.728 302.159 203.658 302.169C202.988 302.219 202.738 302.069 202.718 302.069C202.498 301.969 202.468 301.799 202.468 301.309C202.478 299.739 202.488 298.799 202.408 298.639C202.318 298.399 202.178 298.199 201.678 298.259C201.458 298.289 201.098 298.509 201.078 298.879C201.038 299.669 201.148 301.169 200.968 301.879C200.938 301.999 200.858 302.069 200.758 302.129C200.448 302.289 199.798 302.189 199.688 302.159C199.548 302.119 199.468 302.029 199.418 301.899C199.278 301.559 199.348 297.269 199.378 297.139C199.408 296.999 199.498 296.899 199.618 296.819C199.788 296.709 200.708 296.719 200.848 296.829C201.148 297.069 201.208 296.979 201.218 296.979C201.738 296.709 202.558 296.389 203.588 297.019C203.848 297.179 203.928 297.089 204.018 297.069C204.338 296.979 204.368 296.849 204.928 296.699C205.388 296.579 206.948 296.489 207.298 297.849C207.488 298.609 207.408 300.119 207.398 300.899C207.388 301.379 207.438 302.039 207.028 302.149C206.868 302.199 206.308 302.229 205.928 302.139Z" fill="#363A3F"/>
<rect width="100" height="28" transform="translate(114.199 172.199)" fill="#F6F6F6"/>
<path d="M126.589 186.439C126.589 186.459 126.579 187.049 126.599 187.299C126.619 187.529 126.759 187.619 127.309 187.619C127.649 187.619 128.499 187.629 129.089 187.629C129.779 187.629 129.919 187.529 129.849 188.659C129.809 189.289 129.699 189.239 128.499 189.229C128.039 189.229 129.689 189.239 126.209 189.229C125.839 189.229 125.429 189.279 125.069 189.199C124.659 189.099 124.709 188.669 124.709 188.259C124.699 187.849 124.669 182.909 124.669 182.689C124.659 182.249 124.619 181.859 125.279 181.859C125.609 181.859 126.009 181.799 126.319 181.909C126.639 182.019 126.559 182.439 126.569 182.709C126.579 183.819 126.579 184.279 126.589 186.439ZM130.963 188.949C130.443 188.669 129.623 188.089 129.623 186.549C129.553 185.949 129.883 183.869 132.293 183.649C132.633 183.619 135.013 183.629 135.173 186.369C135.313 188.679 133.033 190.049 130.963 188.949ZM132.603 187.869C133.323 187.739 133.373 186.779 133.373 186.539C133.393 185.859 133.083 185.239 132.483 185.209C131.563 185.159 131.423 186.049 131.403 186.559C131.403 186.649 131.373 187.589 132.093 187.849C132.263 187.909 132.433 187.899 132.603 187.869ZM140.538 184.029C140.538 184.049 140.678 188.689 140.388 189.599C140.248 190.039 139.987 190.369 139.598 190.619C138.948 191.039 138.158 191.109 137.398 191.069C136.988 191.039 136.578 190.959 136.218 190.769C135.808 190.549 135.508 190.219 135.368 189.779C135.308 189.609 135.398 189.379 135.548 189.299C135.788 189.159 136.688 189.049 136.968 189.169C137.108 189.229 137.138 189.429 137.228 189.529C137.488 189.829 138.458 189.899 138.758 189.159C138.798 189.069 138.818 188.959 138.778 188.879C138.658 188.609 138.168 188.959 137.998 189.009C137.778 189.069 137.548 189.099 137.318 189.089C136.868 189.069 136.428 188.909 136.078 188.619C135.597 188.219 135.328 187.609 135.218 186.999C135.118 186.369 135.178 185.699 135.438 185.119C135.898 184.099 137.048 183.169 138.718 183.889C138.868 183.959 139.008 183.949 139.138 183.849C139.238 183.769 139.348 183.739 139.478 183.739C140.158 183.749 140.447 183.669 140.538 184.029ZM138.468 187.419C138.868 187.099 139.038 186.079 138.558 185.369C138.428 185.179 137.998 184.919 137.528 185.109C136.888 185.369 136.798 186.149 136.928 186.739C136.978 186.979 137.088 187.209 137.268 187.379C137.598 187.669 138.188 187.639 138.468 187.419ZM148.281 183.089C148.271 183.349 148.271 183.649 147.721 183.679C147.711 183.679 145.711 183.659 145.701 183.659C145.511 183.649 144.971 183.619 144.971 183.919C144.901 184.189 144.941 184.449 144.951 184.539C144.961 184.599 145.001 184.639 145.051 184.669C145.191 184.749 145.231 184.719 146.231 184.719C147.371 184.719 147.851 184.629 147.861 184.989C147.881 185.349 147.901 185.699 147.871 186.059C147.861 186.179 147.751 186.269 147.621 186.299C147.251 186.359 146.871 186.339 146.491 186.339C146.241 186.339 145.991 186.339 145.741 186.349C145.521 186.349 145.261 186.309 145.051 186.389C144.971 186.419 144.941 186.489 144.941 186.569C144.891 187.219 144.911 187.889 144.901 188.539C144.901 188.729 144.931 188.919 144.801 189.079C144.671 189.239 144.421 189.229 144.231 189.239C143.921 189.269 143.431 189.269 143.211 189.149C142.961 189.019 143.031 188.769 143.011 184.569C142.991 182.649 142.941 182.539 143.061 182.209C143.171 181.869 143.691 181.939 143.951 181.939C145.161 181.939 146.381 181.929 147.591 181.929C147.791 181.929 148.031 181.889 148.181 182.059C148.291 182.169 148.301 182.329 148.281 183.089ZM149.314 188.949C148.794 188.669 147.974 188.089 147.974 186.549C147.904 185.949 148.234 183.869 150.644 183.649C150.984 183.619 153.364 183.629 153.524 186.369C153.664 188.679 151.384 190.049 149.314 188.949ZM150.954 187.869C151.674 187.739 151.724 186.779 151.724 186.539C151.744 185.859 151.434 185.239 150.834 185.209C149.914 185.159 149.774 186.049 149.754 186.559C149.754 186.649 149.724 187.589 150.444 187.849C150.614 187.909 150.784 187.899 150.954 187.869ZM154.869 188.949C154.349 188.669 153.529 188.089 153.529 186.549C153.459 185.949 153.789 183.869 156.199 183.649C156.539 183.619 158.919 183.629 159.079 186.369C159.219 188.679 156.939 190.049 154.869 188.949ZM156.509 187.869C157.229 187.739 157.279 186.779 157.279 186.539C157.299 185.859 156.989 185.239 156.389 185.209C155.469 185.159 155.329 186.049 155.309 186.559C155.309 186.649 155.279 187.589 155.999 187.849C156.169 187.909 156.339 187.899 156.509 187.869ZM159.916 188.529C159.596 187.939 159.876 185.699 159.706 185.379C159.636 185.249 159.516 185.249 159.216 185.159C158.716 185.009 158.866 184.179 158.896 184.129C159.036 183.809 159.306 183.829 159.576 183.749C159.676 183.719 159.716 183.649 159.726 183.539C159.756 183.259 159.746 182.989 159.746 182.719C159.756 182.369 159.906 182.079 160.186 182.029C160.366 181.999 160.886 181.999 161.016 182.039C161.426 182.169 161.446 182.439 161.456 182.709C161.486 182.989 161.466 183.279 161.476 183.569C161.476 183.629 161.526 183.679 161.586 183.699C161.726 183.749 162.086 183.749 162.336 183.939C162.546 184.079 162.476 184.739 162.436 184.829C162.186 185.319 161.536 184.999 161.496 185.369C161.496 185.409 161.486 187.209 161.486 187.279C161.496 187.409 161.476 187.599 161.826 187.759C162.166 187.919 162.566 187.959 162.536 188.379C162.526 188.559 162.426 189.059 162.106 189.189C162.086 189.189 161.676 189.409 160.586 189.109C160.526 189.089 160.156 188.959 159.916 188.529ZM163.74 189.229C162.3 188.759 162.38 187.379 162.7 186.819C163.1 186.099 163.91 185.979 164.65 185.859C164.91 185.819 165.2 185.809 165.44 185.699C165.79 185.539 165.77 185.189 165.55 185.009C165.24 184.769 164.77 184.909 164.52 185.159C164.34 185.349 164.37 185.549 164.04 185.619C163.99 185.629 163.06 185.689 162.9 185.609C162.78 185.549 162.72 185.439 162.7 185.309C162.66 185.069 162.75 184.849 162.87 184.649C163.4 183.769 164.57 183.459 165.53 183.539C166.15 183.589 166.5 183.789 166.6 183.849C167.05 184.089 167.35 184.499 167.45 184.999C167.6 185.769 167.46 187.619 167.6 188.499C167.62 188.609 167.64 188.719 167.63 188.839C167.62 188.989 167.49 189.149 167.33 189.179C167.27 189.199 166.43 189.309 166.15 189.159C166.11 189.139 166.08 189.099 166.04 189.069C165.95 189.009 165.86 188.999 165.77 189.029C165.09 189.239 164.44 189.449 163.74 189.229ZM164.39 187.929C164.61 188.019 165.11 188.099 165.38 187.789C165.68 187.459 165.73 186.999 165.35 187.009C164.82 187.029 164.53 187.199 164.37 187.329C164.12 187.529 164.22 187.849 164.39 187.929ZM173.082 184.029C173.082 184.049 173.222 188.689 172.932 189.599C172.792 190.039 172.532 190.369 172.142 190.619C171.492 191.039 170.702 191.109 169.942 191.069C169.532 191.039 169.122 190.959 168.762 190.769C168.352 190.549 168.052 190.219 167.912 189.779C167.852 189.609 167.942 189.379 168.092 189.299C168.332 189.159 169.232 189.049 169.512 189.169C169.652 189.229 169.682 189.429 169.772 189.529C170.032 189.829 171.002 189.899 171.302 189.159C171.342 189.069 171.362 188.959 171.322 188.879C171.202 188.609 170.712 188.959 170.542 189.009C170.322 189.069 170.092 189.099 169.862 189.089C169.412 189.069 168.972 188.909 168.622 188.619C168.142 188.219 167.872 187.609 167.762 186.999C167.662 186.369 167.722 185.699 167.982 185.119C168.442 184.099 169.592 183.169 171.262 183.889C171.412 183.959 171.552 183.949 171.682 183.849C171.782 183.769 171.892 183.739 172.022 183.739C172.702 183.749 172.992 183.669 173.082 184.029ZM171.012 187.419C171.412 187.099 171.582 186.079 171.102 185.369C170.972 185.179 170.542 184.919 170.072 185.109C169.432 185.369 169.342 186.149 169.472 186.739C169.522 186.979 169.632 187.209 169.812 187.379C170.142 187.669 170.732 187.639 171.012 187.419ZM178.766 186.099C178.786 186.279 178.796 186.459 178.786 186.639C178.776 186.919 178.646 187.039 178.376 187.089C178.206 187.119 178.026 187.119 177.856 187.129C177.486 187.129 177.126 187.139 176.756 187.139C176.496 187.149 176.236 187.149 175.976 187.149C175.506 187.159 175.386 187.139 175.296 187.229C175.256 187.269 175.276 187.369 175.316 187.449C175.376 187.589 175.546 187.719 175.686 187.779C175.906 187.889 176.126 187.919 176.366 187.889C176.506 187.879 176.626 187.829 176.736 187.759C176.776 187.739 176.806 187.699 176.836 187.669C176.906 187.599 176.946 187.519 177.006 187.439C177.066 187.359 177.136 187.279 177.246 187.269C177.346 187.259 178.336 187.259 178.526 187.379C178.626 187.439 178.666 187.529 178.636 187.639C178.476 188.259 177.986 188.739 177.426 189.009C176.546 189.439 175.446 189.439 174.606 188.929C174.026 188.569 173.586 187.989 173.386 187.339C173.206 186.719 173.256 186.049 173.506 185.459C173.596 185.249 173.666 185.049 173.796 184.859C173.926 184.669 174.086 184.499 174.256 184.349C174.586 184.049 174.996 183.839 175.436 183.739C176.276 183.539 177.206 183.779 177.856 184.349C178.366 184.799 178.676 185.429 178.766 186.099ZM176.836 185.809C176.926 185.659 176.776 185.489 176.666 185.399C176.546 185.299 176.366 185.249 176.206 185.219C175.896 185.169 175.466 185.269 175.316 185.579C175.266 185.669 175.246 185.849 175.396 185.859C175.656 185.899 175.936 185.869 176.196 185.869C176.326 185.869 176.456 185.869 176.586 185.869C176.676 185.869 176.786 185.899 176.836 185.809ZM181.033 188.649C180.993 188.209 181.013 187.039 181.003 186.399C181.003 185.709 180.993 184.959 180.993 184.259C180.983 183.719 180.963 183.169 181.003 182.619C181.023 182.329 181.083 181.969 181.533 181.949C181.863 181.939 182.233 181.879 182.453 181.969C182.803 182.109 182.803 182.409 182.813 182.559C182.823 183.609 182.833 184.699 182.843 185.749C182.853 186.299 182.853 186.839 182.863 187.389C182.873 187.879 182.933 188.419 182.813 188.899C182.783 188.999 182.723 189.089 182.623 189.119C182.343 189.209 182.173 189.209 181.883 189.209C181.563 189.199 181.103 189.279 181.033 188.649ZM188.396 184.999C188.426 185.139 188.536 185.349 188.486 188.559C188.476 189.119 188.236 189.169 188.126 189.179C187.696 189.229 187.056 189.189 186.936 189.149C186.836 189.109 186.776 189.039 186.736 188.949C186.596 188.559 186.716 188.479 186.656 186.139C186.636 185.289 186.036 184.949 185.536 185.289C185.316 185.439 185.206 185.649 185.156 185.899C185.106 186.189 185.136 188.589 185.136 188.609C185.126 189.119 184.976 189.189 184.616 189.199C184.396 189.209 183.766 189.199 183.766 189.199C183.576 189.189 183.336 189.159 183.316 188.589C183.306 188.389 183.286 188.199 183.286 187.999C183.246 186.839 183.296 184.659 183.306 184.639C183.306 184.449 183.336 184.259 183.396 184.079C183.446 183.919 183.676 183.769 183.816 183.759C183.826 183.759 184.496 183.699 184.796 183.859C185.236 184.079 185.106 183.949 185.726 183.749C185.876 183.689 186.036 183.649 186.196 183.629C186.416 183.609 187.626 183.599 188.166 184.429C188.276 184.599 188.366 184.789 188.396 184.999ZM192.5 183.739C194.15 184.229 194.34 185.839 194.34 186.529C194.34 187.989 193.24 189.949 190.97 189.129C190.84 189.079 190.72 189.159 190.7 189.289C190.65 189.689 190.7 190.059 190.67 190.529C190.65 190.919 190.42 190.949 190.26 190.949C190.24 190.949 189.38 190.959 189.11 190.909C189.11 190.899 188.85 190.889 188.85 190.559C188.84 190.549 188.85 188.619 188.85 188.619C188.85 188.599 188.85 184.499 188.85 184.479C188.87 183.959 188.96 183.719 189.96 183.729C190.17 183.739 190.36 183.779 190.53 183.889C190.64 183.959 190.75 183.939 190.85 183.869C190.87 183.859 191.49 183.439 192.5 183.739ZM190.64 186.569C190.66 187.169 190.84 188.099 191.72 187.939C192.23 187.859 192.56 187.469 192.6 186.709C192.64 186.099 192.55 185.069 191.54 185.109C190.73 185.129 190.63 186.219 190.64 186.569ZM197.772 186.989C197.872 186.439 197.792 184.529 197.852 184.199C197.862 184.149 197.952 183.789 198.232 183.769C199.242 183.669 199.372 183.799 199.432 183.839C199.552 183.919 199.622 184.029 199.622 184.169C199.682 185.969 199.642 187.249 199.652 187.869C199.662 188.769 199.662 189.109 199.272 189.179C199.212 189.189 198.482 189.229 198.362 189.239C198.192 189.249 198.082 189.169 197.982 189.039C197.932 188.959 197.872 188.949 197.772 188.979C197.442 189.089 197.232 189.259 196.762 189.299C195.882 189.379 195.212 189.089 194.822 188.449C194.322 187.639 194.462 184.409 194.462 184.389C194.502 184.169 194.512 183.819 194.932 183.769C195.052 183.749 195.692 183.749 195.712 183.749C196.222 183.799 196.252 184.159 196.262 184.219C196.292 184.389 196.262 183.919 196.292 187.049C196.292 187.099 196.332 187.739 196.892 187.819C197.532 187.899 197.742 187.199 197.772 186.989ZM200.757 188.529C200.437 187.939 200.717 185.699 200.547 185.379C200.477 185.249 200.357 185.249 200.057 185.159C199.557 185.009 199.707 184.179 199.737 184.129C199.877 183.809 200.147 183.829 200.417 183.749C200.517 183.719 200.557 183.649 200.567 183.539C200.597 183.259 200.587 182.989 200.587 182.719C200.597 182.369 200.747 182.079 201.027 182.029C201.207 181.999 201.727 181.999 201.857 182.039C202.267 182.169 202.287 182.439 202.297 182.709C202.327 182.989 202.307 183.279 202.317 183.569C202.317 183.629 202.367 183.679 202.427 183.699C202.567 183.749 202.927 183.749 203.177 183.939C203.387 184.079 203.317 184.739 203.277 184.829C203.027 185.319 202.377 184.999 202.337 185.369C202.337 185.409 202.327 187.209 202.327 187.279C202.337 187.409 202.317 187.599 202.667 187.759C203.007 187.919 203.407 187.959 203.377 188.379C203.367 188.559 203.267 189.059 202.947 189.189C202.927 189.189 202.517 189.409 201.427 189.109C201.367 189.089 200.997 188.959 200.757 188.529Z" fill="#363A3F"/>
<rect width="108" height="28" transform="translate(110.199 398.199)" fill="#F8F8F8"/>
<path d="M125.959 409.089C125.949 409.349 125.949 409.649 125.399 409.679C125.389 409.679 123.389 409.659 123.379 409.659C123.189 409.649 122.649 409.619 122.649 409.919C122.579 410.189 122.619 410.449 122.629 410.539C122.639 410.599 122.679 410.639 122.729 410.669C122.869 410.749 122.909 410.719 123.909 410.719C125.049 410.719 125.529 410.629 125.539 410.989C125.559 411.349 125.579 411.699 125.549 412.059C125.539 412.179 125.429 412.269 125.299 412.299C124.929 412.359 124.549 412.339 124.169 412.339C123.919 412.339 123.669 412.339 123.419 412.349C123.199 412.349 122.939 412.309 122.729 412.389C122.649 412.419 122.619 412.489 122.619 412.569C122.569 413.219 122.589 413.889 122.579 414.539C122.579 414.729 122.609 414.919 122.479 415.079C122.349 415.239 122.099 415.229 121.909 415.239C121.599 415.269 121.109 415.269 120.889 415.149C120.639 415.019 120.709 414.769 120.689 410.569C120.669 408.649 120.619 408.539 120.739 408.209C120.849 407.869 121.369 407.939 121.629 407.939C122.839 407.939 124.059 407.929 125.269 407.929C125.469 407.929 125.709 407.889 125.859 408.059C125.969 408.169 125.979 408.329 125.959 409.089ZM126.117 414.649C126.077 414.209 126.097 413.039 126.087 412.399C126.087 411.709 126.077 410.959 126.077 410.259C126.067 409.719 126.047 409.169 126.087 408.619C126.107 408.329 126.167 407.969 126.617 407.949C126.947 407.939 127.317 407.879 127.537 407.969C127.887 408.109 127.887 408.409 127.897 408.559C127.907 409.609 127.917 410.699 127.927 411.749C127.937 412.299 127.937 412.839 127.947 413.389C127.957 413.879 128.017 414.419 127.897 414.899C127.867 414.999 127.807 415.089 127.707 415.119C127.427 415.209 127.257 415.209 126.967 415.209C126.647 415.199 126.187 415.279 126.117 414.649ZM128.37 414.409C128.35 414.019 128.39 412.519 128.39 411.749C128.38 411.019 128.33 408.499 128.49 408.199C128.57 408.049 128.69 407.989 128.85 407.979C129.82 407.909 129.88 407.999 129.93 408.029C130.04 408.089 130.08 408.199 130.11 408.319C130.24 408.869 130.16 411.959 130.16 412.009C130.17 412.069 130.19 414.259 130.19 414.319C130.21 414.929 130.05 415.079 129.87 415.159C129.78 415.199 128.81 415.269 128.54 415.039C128.42 414.949 128.4 414.759 128.37 414.409ZM137.165 415.139C136.795 415.059 136.875 414.499 136.875 413.469C136.875 412.159 136.945 411.379 136.475 411.289C136.225 411.229 135.985 411.289 135.885 411.349C135.565 411.549 135.445 411.849 135.495 413.119C135.495 413.129 135.505 414.539 135.425 414.839C135.385 414.999 135.285 415.109 135.105 415.149C135.035 415.159 134.965 415.159 134.895 415.169C134.225 415.219 133.975 415.069 133.955 415.069C133.735 414.969 133.705 414.799 133.705 414.309C133.715 412.739 133.725 411.799 133.645 411.639C133.555 411.399 133.415 411.199 132.915 411.259C132.695 411.289 132.335 411.509 132.315 411.879C132.275 412.669 132.385 414.169 132.205 414.879C132.175 414.999 132.095 415.069 131.995 415.129C131.685 415.289 131.035 415.189 130.925 415.159C130.785 415.119 130.705 415.029 130.655 414.899C130.515 414.559 130.585 410.269 130.615 410.139C130.645 409.999 130.735 409.899 130.855 409.819C131.025 409.709 131.945 409.719 132.085 409.829C132.385 410.069 132.445 409.979 132.455 409.979C132.975 409.709 133.795 409.389 134.825 410.019C135.085 410.179 135.165 410.089 135.255 410.069C135.575 409.979 135.605 409.849 136.165 409.699C136.625 409.579 138.185 409.489 138.535 410.849C138.725 411.609 138.645 413.119 138.635 413.899C138.625 414.379 138.675 415.039 138.265 415.149C138.105 415.199 137.545 415.229 137.165 415.139ZM141.041 409.069C141.031 408.239 141.001 407.959 141.961 407.919C145.011 407.779 146.491 408.129 146.921 409.659C147.131 410.409 147.031 411.959 145.581 412.469C144.941 412.699 144.221 412.629 143.561 412.649C142.801 412.659 142.901 412.839 142.881 413.619C142.881 413.879 142.871 414.139 142.871 414.399C142.861 414.649 142.891 415.189 142.561 415.209C141.941 415.259 141.701 415.239 141.551 415.219C141.371 415.199 141.171 415.219 141.071 414.869C140.961 414.489 141.051 412.159 141.041 409.069ZM142.991 409.599C142.881 409.709 142.861 409.819 142.861 410.559C142.871 410.979 142.911 411.099 143.231 411.109C143.761 411.119 144.731 411.249 145.021 410.659C145.261 410.189 145.001 409.569 144.441 409.529C143.101 409.409 143.011 409.589 142.991 409.599ZM148.513 415.169C148.493 415.169 147.633 415.219 147.353 415.139C147.213 415.109 147.123 414.989 147.103 414.839C147.103 414.819 147.043 410.779 147.073 410.369C147.083 410.229 147.103 410.089 147.183 409.969C147.333 409.719 147.883 409.739 148.383 409.759C148.683 409.769 148.763 410.209 149.143 409.919C149.843 409.389 150.433 409.659 150.533 409.709C150.593 409.749 150.653 409.819 150.663 409.889C150.723 410.159 150.793 410.769 150.623 411.119C150.573 411.249 150.453 411.299 150.323 411.319C150.013 411.359 149.363 411.239 148.973 411.999C148.713 412.499 148.843 412.869 148.793 414.679C148.783 414.949 148.723 415.159 148.513 415.169ZM152.142 415.139C151.882 415.179 150.952 415.259 150.822 414.929C150.702 414.639 150.782 413.079 150.782 412.959C150.762 411.539 150.742 411.329 150.742 410.409C150.742 410.209 150.802 409.879 151.102 409.849C151.332 409.829 151.972 409.839 151.982 409.839C152.272 409.849 152.362 409.949 152.412 410.089C152.462 410.229 152.462 410.379 152.462 410.529C152.472 411.439 152.552 414.489 152.442 414.879C152.392 415.039 152.322 415.109 152.142 415.139ZM152.112 409.439C152.102 409.439 151.372 409.539 151.102 409.459C150.922 409.399 150.812 409.329 150.782 409.109C150.662 408.439 150.832 408.219 150.862 408.159C150.922 408.079 151.002 408.029 151.102 408.009C151.402 407.969 151.932 407.979 152.142 408.009C152.272 408.019 152.412 408.129 152.432 408.289C152.462 408.639 152.472 408.969 152.412 409.179C152.362 409.329 152.272 409.429 152.112 409.439ZM157.989 410.999C158.019 411.139 158.129 411.349 158.079 414.559C158.069 415.119 157.829 415.169 157.719 415.179C157.289 415.229 156.649 415.189 156.529 415.149C156.429 415.109 156.369 415.039 156.329 414.949C156.189 414.559 156.309 414.479 156.249 412.139C156.229 411.289 155.629 410.949 155.129 411.289C154.909 411.439 154.799 411.649 154.749 411.899C154.699 412.189 154.729 414.589 154.729 414.609C154.719 415.119 154.569 415.189 154.209 415.199C153.989 415.209 153.359 415.199 153.359 415.199C153.169 415.189 152.929 415.159 152.909 414.589C152.899 414.389 152.879 414.199 152.879 413.999C152.839 412.839 152.889 410.659 152.899 410.639C152.899 410.449 152.929 410.259 152.989 410.079C153.039 409.919 153.269 409.769 153.409 409.759C153.419 409.759 154.089 409.699 154.389 409.859C154.829 410.079 154.699 409.949 155.319 409.749C155.469 409.689 155.629 409.649 155.789 409.629C156.009 409.609 157.219 409.599 157.759 410.429C157.869 410.599 157.959 410.789 157.989 410.999ZM159.144 414.529C158.824 413.939 159.104 411.699 158.934 411.379C158.864 411.249 158.744 411.249 158.444 411.159C157.944 411.009 158.094 410.179 158.124 410.129C158.264 409.809 158.534 409.829 158.804 409.749C158.904 409.719 158.944 409.649 158.954 409.539C158.984 409.259 158.974 408.989 158.974 408.719C158.984 408.369 159.134 408.079 159.414 408.029C159.594 407.999 160.114 407.999 160.244 408.039C160.654 408.169 160.674 408.439 160.684 408.709C160.714 408.989 160.694 409.279 160.704 409.569C160.704 409.629 160.754 409.679 160.814 409.699C160.954 409.749 161.314 409.749 161.564 409.939C161.774 410.079 161.704 410.739 161.664 410.829C161.414 411.319 160.764 410.999 160.724 411.369C160.724 411.409 160.714 413.209 160.714 413.279C160.724 413.409 160.704 413.599 161.054 413.759C161.394 413.919 161.794 413.959 161.764 414.379C161.754 414.559 161.654 415.059 161.334 415.189C161.314 415.189 160.904 415.409 159.814 415.109C159.754 415.089 159.384 414.959 159.144 414.529ZM164.799 415.249C164.209 415.249 163.939 415.149 163.949 414.149V414.139C163.979 408.289 163.989 408.389 164.079 408.169C164.189 407.909 164.489 407.919 164.729 407.919C165.519 407.919 162.709 407.939 168.859 407.889C169.109 407.889 169.409 407.859 169.529 408.129C169.619 408.329 169.649 409.139 169.559 409.379C169.459 409.639 169.189 409.599 168.959 409.599C165.919 409.649 166.109 409.629 165.999 409.689C165.889 409.739 165.839 409.839 165.839 409.959C165.829 410.119 165.829 410.279 165.849 410.429C165.859 410.579 165.899 410.639 166.069 410.659C166.749 410.729 168.769 410.629 169.049 410.699C169.279 410.769 169.279 411.019 169.299 411.229C169.329 411.519 169.409 412.069 169.059 412.199C168.879 412.269 169.019 412.239 166.599 412.289C166.219 412.289 165.879 412.189 165.859 412.509C165.849 412.589 165.789 413.369 165.939 413.439C166.109 413.519 166.409 413.489 166.589 413.489C167.349 413.489 168.109 413.489 168.879 413.489C169.029 413.489 169.559 413.439 169.629 413.999C169.649 414.169 169.629 414.869 169.599 414.959C169.499 415.249 169.199 415.249 168.949 415.249C168.099 415.249 171.049 415.249 164.799 415.249ZM176.483 415.139C176.113 415.059 176.193 414.499 176.193 413.469C176.193 412.159 176.263 411.379 175.793 411.289C175.543 411.229 175.303 411.289 175.203 411.349C174.883 411.549 174.763 411.849 174.813 413.119C174.813 413.129 174.823 414.539 174.743 414.839C174.703 414.999 174.603 415.109 174.423 415.149C174.353 415.159 174.283 415.159 174.213 415.169C173.543 415.219 173.293 415.069 173.273 415.069C173.053 414.969 173.023 414.799 173.023 414.309C173.033 412.739 173.043 411.799 172.963 411.639C172.873 411.399 172.733 411.199 172.233 411.259C172.013 411.289 171.653 411.509 171.633 411.879C171.593 412.669 171.703 414.169 171.523 414.879C171.493 414.999 171.413 415.069 171.313 415.129C171.003 415.289 170.353 415.189 170.243 415.159C170.103 415.119 170.023 415.029 169.973 414.899C169.833 414.559 169.903 410.269 169.933 410.139C169.963 409.999 170.053 409.899 170.173 409.819C170.343 409.709 171.263 409.719 171.403 409.829C171.703 410.069 171.763 409.979 171.773 409.979C172.293 409.709 173.113 409.389 174.143 410.019C174.403 410.179 174.483 410.089 174.573 410.069C174.893 409.979 174.923 409.849 175.483 409.699C175.943 409.579 177.503 409.489 177.853 410.849C178.043 411.609 177.963 413.119 177.953 413.899C177.943 414.379 177.993 415.039 177.583 415.149C177.423 415.199 176.863 415.229 176.483 415.139ZM181.549 412.989C181.649 412.439 181.569 410.529 181.629 410.199C181.639 410.149 181.729 409.789 182.009 409.769C183.019 409.669 183.149 409.799 183.209 409.839C183.329 409.919 183.399 410.029 183.399 410.169C183.459 411.969 183.419 413.249 183.429 413.869C183.439 414.769 183.439 415.109 183.049 415.179C182.989 415.189 182.259 415.229 182.139 415.239C181.969 415.249 181.859 415.169 181.759 415.039C181.709 414.959 181.649 414.949 181.549 414.979C181.219 415.089 181.009 415.259 180.539 415.299C179.659 415.379 178.989 415.089 178.599 414.449C178.099 413.639 178.239 410.409 178.239 410.389C178.279 410.169 178.289 409.819 178.709 409.769C178.829 409.749 179.469 409.749 179.489 409.749C179.999 409.799 180.029 410.159 180.039 410.219C180.069 410.389 180.039 409.919 180.069 413.049C180.069 413.099 180.109 413.739 180.669 413.819C181.309 413.899 181.519 413.199 181.549 412.989ZM183.825 414.409C183.805 414.019 183.845 412.519 183.845 411.749C183.835 411.019 183.785 408.499 183.945 408.199C184.025 408.049 184.145 407.989 184.305 407.979C185.275 407.909 185.335 407.999 185.385 408.029C185.495 408.089 185.535 408.199 185.565 408.319C185.695 408.869 185.615 411.959 185.615 412.009C185.625 412.069 185.645 414.259 185.645 414.319C185.665 414.929 185.505 415.079 185.325 415.159C185.235 415.199 184.265 415.269 183.995 415.039C183.875 414.949 183.855 414.759 183.825 414.409ZM187.09 415.229C185.65 414.759 185.73 413.379 186.05 412.819C186.45 412.099 187.26 411.979 188 411.859C188.26 411.819 188.55 411.809 188.79 411.699C189.14 411.539 189.12 411.189 188.9 411.009C188.59 410.769 188.12 410.909 187.87 411.159C187.69 411.349 187.72 411.549 187.39 411.619C187.34 411.629 186.41 411.689 186.25 411.609C186.13 411.549 186.07 411.439 186.05 411.309C186.01 411.069 186.1 410.849 186.22 410.649C186.75 409.769 187.92 409.459 188.88 409.539C189.5 409.589 189.85 409.789 189.95 409.849C190.4 410.089 190.7 410.499 190.8 410.999C190.95 411.769 190.81 413.619 190.95 414.499C190.97 414.609 190.99 414.719 190.98 414.839C190.97 414.989 190.84 415.149 190.68 415.179C190.62 415.199 189.78 415.309 189.5 415.159C189.46 415.139 189.43 415.099 189.39 415.069C189.3 415.009 189.21 414.999 189.12 415.029C188.44 415.239 187.79 415.449 187.09 415.229ZM187.74 413.929C187.96 414.019 188.46 414.099 188.73 413.789C189.03 413.459 189.08 412.999 188.7 413.009C188.17 413.029 187.88 413.199 187.72 413.329C187.47 413.529 187.57 413.849 187.74 413.929ZM191.982 414.529C191.662 413.939 191.942 411.699 191.772 411.379C191.702 411.249 191.582 411.249 191.282 411.159C190.782 411.009 190.932 410.179 190.962 410.129C191.102 409.809 191.372 409.829 191.642 409.749C191.742 409.719 191.782 409.649 191.792 409.539C191.822 409.259 191.812 408.989 191.812 408.719C191.822 408.369 191.972 408.079 192.252 408.029C192.432 407.999 192.952 407.999 193.082 408.039C193.492 408.169 193.512 408.439 193.522 408.709C193.552 408.989 193.532 409.279 193.542 409.569C193.542 409.629 193.592 409.679 193.652 409.699C193.792 409.749 194.152 409.749 194.402 409.939C194.612 410.079 194.542 410.739 194.502 410.829C194.252 411.319 193.602 410.999 193.562 411.369C193.562 411.409 193.552 413.209 193.552 413.279C193.562 413.409 193.542 413.599 193.892 413.759C194.232 413.919 194.632 413.959 194.602 414.379C194.592 414.559 194.492 415.059 194.172 415.189C194.152 415.189 193.742 415.409 192.652 415.109C192.592 415.089 192.222 414.959 191.982 414.529ZM196.136 415.139C195.876 415.179 194.946 415.259 194.816 414.929C194.696 414.639 194.776 413.079 194.776 412.959C194.756 411.539 194.736 411.329 194.736 410.409C194.736 410.209 194.796 409.879 195.096 409.849C195.326 409.829 195.966 409.839 195.976 409.839C196.266 409.849 196.356 409.949 196.406 410.089C196.456 410.229 196.456 410.379 196.456 410.529C196.466 411.439 196.546 414.489 196.436 414.879C196.386 415.039 196.316 415.109 196.136 415.139ZM196.106 409.439C196.096 409.439 195.366 409.539 195.096 409.459C194.916 409.399 194.806 409.329 194.776 409.109C194.656 408.439 194.826 408.219 194.856 408.159C194.916 408.079 194.996 408.029 195.096 408.009C195.396 407.969 195.926 407.979 196.136 408.009C196.266 408.019 196.406 408.129 196.426 408.289C196.456 408.639 196.466 408.969 196.406 409.179C196.356 409.329 196.266 409.429 196.106 409.439ZM198.014 414.949C197.494 414.669 196.674 414.089 196.674 412.549C196.604 411.949 196.934 409.869 199.344 409.649C199.684 409.619 202.064 409.629 202.224 412.369C202.364 414.679 200.084 416.049 198.014 414.949ZM199.654 413.869C200.374 413.739 200.424 412.779 200.424 412.539C200.444 411.859 200.134 411.239 199.534 411.209C198.614 411.159 198.474 412.049 198.454 412.559C198.454 412.649 198.424 413.589 199.144 413.849C199.314 413.909 199.484 413.899 199.654 413.869ZM207.538 410.999C207.568 411.139 207.678 411.349 207.628 414.559C207.618 415.119 207.378 415.169 207.268 415.179C206.838 415.229 206.198 415.189 206.078 415.149C205.978 415.109 205.918 415.039 205.878 414.949C205.738 414.559 205.858 414.479 205.798 412.139C205.778 411.289 205.178 410.949 204.678 411.289C204.458 411.439 204.348 411.649 204.298 411.899C204.248 412.189 204.278 414.589 204.278 414.609C204.268 415.119 204.118 415.189 203.758 415.199C203.538 415.209 202.908 415.199 202.908 415.199C202.718 415.189 202.478 415.159 202.458 414.589C202.448 414.389 202.428 414.199 202.428 413.999C202.388 412.839 202.438 410.659 202.448 410.639C202.448 410.449 202.478 410.259 202.538 410.079C202.588 409.919 202.818 409.769 202.958 409.759C202.968 409.759 203.638 409.699 203.938 409.859C204.378 410.079 204.248 409.949 204.868 409.749C205.018 409.689 205.178 409.649 205.338 409.629C205.558 409.609 206.768 409.599 207.308 410.429C207.418 410.599 207.508 410.789 207.538 410.999Z" fill="#363A3F"/>
</g>
<defs>
<filter id="filter0_d_2303_2172" x="-0.000781059" y="-0.000781059" width="326.4" height="589.4" filterUnits="userSpaceOnUse" color-interpolation-filters="sRGB">
<feFlood flood-opacity="0" result="BackgroundImageFix"/>
<feColorMatrix in="SourceAlpha" type="matrix" values="0 0 0 0 0 0 0 0 0 0 0 0 0 0 0 0 0 0 127 0" result="hardAlpha"/>
<feOffset dy="9"/>
<feGaussianBlur stdDeviation="6.1"/>
<feComposite in2="hardAlpha" operator="out"/>
<feColorMatrix type="matrix" values="0 0 0 0 0 0 0 0 0 0 0 0 0 0 0 0 0 0 0.25 0"/>
<feBlend mode="normal" in2="BackgroundImageFix" result="effect1_dropShadow_2303_2172"/>
<feBlend mode="normal" in="SourceGraphic" in2="effect1_dropShadow_2303_2172" result="shape"/>
</filter>
<linearGradient id="paint0_linear_2303_2172" x1="163.199" y1="3.19922" x2="163.199" y2="568.199" gradientUnits="userSpaceOnUse">
<stop stop-color="#F2F2F2"/>
<stop offset="1" stop-color="#FAFAFA"/>
</linearGradient>
</defs>
</svg>
